<?xml version="1.0" encoding="UTF-8" standalone="no"?>
<!-- Created with Inkscape (http://www.inkscape.org/) -->

<svg
   xmlns:dc="http://purl.org/dc/elements/1.1/"
   xmlns:cc="http://creativecommons.org/ns#"
   xmlns:rdf="http://www.w3.org/1999/02/22-rdf-syntax-ns#"
   xmlns:svg="http://www.w3.org/2000/svg"
   xmlns="http://www.w3.org/2000/svg"
   xmlns:sodipodi="http://sodipodi.sourceforge.net/DTD/sodipodi-0.dtd"
   xmlns:inkscape="http://www.inkscape.org/namespaces/inkscape"
   width="790.46143"
   height="257.03836"
   id="svg2"
   version="1.1"
   inkscape:version="0.48.4 r9939"
   sodipodi:docname="pos_diag1.svg"
   inkscape:export-filename="/home/vub/pos_diag1.png"
   inkscape:export-xdpi="90"
   inkscape:export-ydpi="90">
  <defs
     id="defs4" />
  <sodipodi:namedview
     id="base"
     pagecolor="#ffffff"
     bordercolor="#666666"
     borderopacity="1.0"
     inkscape:pageopacity="0.0"
     inkscape:pageshadow="2"
     inkscape:zoom="0.98994949"
     inkscape:cx="341.4363"
     inkscape:cy="138.34568"
     inkscape:document-units="px"
     inkscape:current-layer="layer1"
     showgrid="false"
     fit-margin-top="0"
     fit-margin-left="0"
     fit-margin-right="0"
     fit-margin-bottom="0"
     inkscape:window-width="1301"
     inkscape:window-height="744"
     inkscape:window-x="65"
     inkscape:window-y="24"
     inkscape:window-maximized="1" />
  <metadata
     id="metadata7">
    <rdf:RDF>
      <cc:Work
         rdf:about="">
        <dc:format>image/svg+xml</dc:format>
        <dc:type
           rdf:resource="http://purl.org/dc/dcmitype/StillImage" />
        <dc:title></dc:title>
      </cc:Work>
    </rdf:RDF>
  </metadata>
  <g
     inkscape:label="Layer 1"
     inkscape:groupmode="layer"
     id="layer1"
     transform="translate(-57.807361,-332.85716)">
    <path
       sodipodi:type="arc"
       style="fill:none;stroke:#000000;stroke-width:1.56573355"
       id="path2985"
       sodipodi:cx="76.266518"
       sodipodi:cy="452.83664"
       sodipodi:rx="17.67767"
       sodipodi:ry="16.667517"
       d="m 93.944187,452.83664 c 0,9.20521 -7.914562,16.66752 -17.677669,16.66752 -9.763108,0 -17.67767,-7.46231 -17.67767,-16.66752 0,-9.20522 7.914562,-16.66752 17.67767,-16.66752 9.763107,0 17.677669,7.4623 17.677669,16.66752 z"
       transform="matrix(0.91606688,0,0,1.0018891,4.8860577,-0.85546195)" />
    <path
       sodipodi:type="arc"
       style="fill:none;stroke:#000000;stroke-width:1.56573355"
       id="path2985-4"
       sodipodi:cx="76.266518"
       sodipodi:cy="452.83664"
       sodipodi:rx="17.67767"
       sodipodi:ry="16.667517"
       d="m 93.944187,452.83664 c 0,9.20521 -7.914562,16.66752 -17.677669,16.66752 -9.763108,0 -17.67767,-7.46231 -17.67767,-16.66752 0,-9.20522 7.914562,-16.66752 17.67767,-16.66752 9.763107,0 17.677669,7.4623 17.677669,16.66752 z"
       transform="matrix(0.91606688,0,0,1.0018891,108.93177,-5.4011326)" />
    <path
       sodipodi:type="arc"
       style="fill:none;stroke:#000000;stroke-width:1.56573355"
       id="path2985-3"
       sodipodi:cx="76.266518"
       sodipodi:cy="452.83664"
       sodipodi:rx="17.67767"
       sodipodi:ry="16.667517"
       d="m 93.944187,452.83664 c 0,9.20521 -7.914562,16.66752 -17.677669,16.66752 -9.763108,0 -17.67767,-7.46231 -17.67767,-16.66752 0,-9.20522 7.914562,-16.66752 17.67767,-16.66752 9.763107,0 17.677669,7.4623 17.677669,16.66752 z"
       transform="matrix(0.91606688,0,0,1.0018891,205.90641,37.025275)" />
    <path
       sodipodi:type="arc"
       style="fill:none;stroke:#000000;stroke-width:1.56573355"
       id="path2985-9"
       sodipodi:cx="76.266518"
       sodipodi:cy="452.83664"
       sodipodi:rx="17.67767"
       sodipodi:ry="16.667517"
       d="m 93.944187,452.83664 c 0,9.20521 -7.914562,16.66752 -17.677669,16.66752 -9.763108,0 -17.67767,-7.46231 -17.67767,-16.66752 0,-9.20522 7.914562,-16.66752 17.67767,-16.66752 9.763107,0 17.677669,7.4623 17.677669,16.66752 z"
       transform="matrix(0.91606688,0,0,1.0018891,150.34802,-103.38593)" />
    <path
       style="fill:none;stroke:#000000;stroke-width:1.5;stroke-linecap:butt;stroke-linejoin:miter;stroke-opacity:1"
       d="m 90.913729,452.31127 71.720831,-3.03046"
       id="path3019"
       inkscape:connector-curvature="0" />
    <path
       style="fill:none;stroke:#000000;stroke-width:1.5;stroke-linecap:butt;stroke-linejoin:miter;stroke-opacity:1"
       d="m 194.47409,453.94225 65.62047,29.10352"
       id="path3019-6"
       inkscape:connector-curvature="0" />
    <path
       style="fill:none;stroke:#000000;stroke-width:1.5;stroke-linecap:butt;stroke-linejoin:miter;stroke-opacity:1"
       d="M 184.46859,432.61387 213.57211,366.9934"
       id="path3019-6-4"
       inkscape:connector-curvature="0" />
    <path
       style="fill:none;stroke:#000000;stroke-width:1.5;stroke-linecap:butt;stroke-linejoin:miter;stroke-opacity:1"
       d="m 292.45946,488.19199 71.72083,-3.03046"
       id="path3019-0"
       inkscape:connector-curvature="0" />
    <path
       sodipodi:type="arc"
       style="fill:none;stroke:#000000;stroke-width:1.56573355"
       id="path2985-4-4"
       sodipodi:cx="76.266518"
       sodipodi:cy="452.83664"
       sodipodi:rx="17.67767"
       sodipodi:ry="16.667517"
       d="m 93.944187,452.83664 c 0,9.20521 -7.914562,16.66752 -17.677669,16.66752 -9.763108,0 -17.67767,-7.46231 -17.67767,-16.66752 0,-9.20522 7.914562,-16.66752 17.67767,-16.66752 9.763107,0 17.677669,7.4623 17.677669,16.66752 z"
       transform="matrix(0.91606688,0,0,1.0018891,311.97243,31.954207)" />
    <path
       style="fill:none;stroke:#000000;stroke-width:1.5;stroke-linecap:butt;stroke-linejoin:miter;stroke-opacity:1"
       d="m 392.91167,473.53373 53.7612,-47.56885"
       id="path3019-0-9"
       inkscape:connector-curvature="0" />
    <path
       sodipodi:type="arc"
       style="fill:none;stroke:#000000;stroke-width:1.56573355"
       id="path2985-4-4-2"
       sodipodi:cx="76.266518"
       sodipodi:cy="452.83664"
       sodipodi:rx="17.67767"
       sodipodi:ry="16.667517"
       d="m 93.944187,452.83664 c 0,9.20521 -7.914562,16.66752 -17.677669,16.66752 -9.763108,0 -17.67767,-7.46231 -17.67767,-16.66752 0,-9.20522 7.914562,-16.66752 17.67767,-16.66752 9.763107,0 17.677669,7.4623 17.677669,16.66752 z"
       transform="matrix(0.71107721,-0.57753591,0.63164267,0.77769486,120.42231,107.08697)" />
    <path
       style="fill:none;stroke:#000000;stroke-width:1.5;stroke-linecap:butt;stroke-linejoin:miter;stroke-opacity:1"
       d="m 395.20185,496.63193 53.7612,47.56885"
       id="path3019-0-9-8"
       inkscape:connector-curvature="0" />
    <path
       sodipodi:type="arc"
       style="fill:none;stroke:#000000;stroke-width:1.56573355"
       id="path2985-4-4-2-0"
       sodipodi:cx="76.266518"
       sodipodi:cy="452.83664"
       sodipodi:rx="17.67767"
       sodipodi:ry="16.667517"
       d="m 93.944187,452.83664 c 0,9.20521 -7.914562,16.66752 -17.677669,16.66752 -9.763108,0 -17.67767,-7.46231 -17.67767,-16.66752 0,-9.20522 7.914562,-16.66752 17.67767,-16.66752 9.763107,0 17.677669,7.4623 17.677669,16.66752 z"
       transform="matrix(0.71107721,0.57753591,0.63164267,-0.77769486,122.71249,863.07869)" />
    <path
       style="fill:none;stroke:#000000;stroke-width:1.5;stroke-linecap:butt;stroke-linejoin:miter;stroke-opacity:1"
       d="M 477.43477,414.43054 549.1556,417.461"
       id="path3019-0-6"
       inkscape:connector-curvature="0" />
    <path
       sodipodi:type="arc"
       style="fill:none;stroke:#000000;stroke-width:1.56573355"
       id="path2985-4-4-1"
       sodipodi:cx="76.266518"
       sodipodi:cy="452.83664"
       sodipodi:rx="17.67767"
       sodipodi:ry="16.667517"
       d="m 93.944187,452.83664 c 0,9.20521 -7.914562,16.66752 -17.677669,16.66752 -9.763108,0 -17.67767,-7.46231 -17.67767,-16.66752 0,-9.20522 7.914562,-16.66752 17.67767,-16.66752 9.763107,0 17.677669,7.4623 17.677669,16.66752 z"
       transform="matrix(0.91606688,0,0,-1.0018891,496.94774,870.66832)" />
    <path
       style="fill:none;stroke:#000000;stroke-width:1;stroke-linecap:butt;stroke-linejoin:miter;stroke-miterlimit:4;stroke-opacity:1;stroke-dasharray:4, 4;stroke-dashoffset:0"
       d="m 583.50078,414.47116 71.72083,-3.03046"
       id="path3019-0-7"
       inkscape:connector-curvature="0" />
    <path
       sodipodi:type="arc"
       style="fill:none;stroke:#000000;stroke-width:1.5;stroke-miterlimit:4;stroke-dasharray:5.99999991, 5.99999991;stroke-dashoffset:0"
       id="path2985-4-4-7"
       sodipodi:cx="76.266518"
       sodipodi:cy="452.83664"
       sodipodi:rx="17.67767"
       sodipodi:ry="16.667517"
       d="m 93.944187,452.83664 c 0,9.20521 -7.914562,16.66752 -17.677669,16.66752 -9.763108,0 -17.67767,-7.46231 -17.67767,-16.66752 0,-9.20522 7.914562,-16.66752 17.67767,-16.66752 9.763107,0 17.677669,7.4623 17.677669,16.66752 z"
       transform="matrix(0.91606688,0,0,1.0018891,603.01375,-41.766624)" />
    <path
       style="fill:none;stroke:#000000;stroke-width:1;stroke-linecap:butt;stroke-linejoin:miter;stroke-miterlimit:4;stroke-opacity:1;stroke-dasharray:4, 4;stroke-dashoffset:0"
       d="m 581.13709,425.46856 63.88693,32.73413"
       id="path3019-0-9-7-7"
       inkscape:connector-curvature="0" />
    <path
       sodipodi:type="arc"
       style="fill:none;stroke:#000000;stroke-width:1.4999727;stroke-miterlimit:4;stroke-dasharray:5.99989077, 5.99989077;stroke-dashoffset:0"
       id="path2985-4-4-2-07-0"
       sodipodi:cx="76.266518"
       sodipodi:cy="452.83664"
       sodipodi:rx="17.67767"
       sodipodi:ry="16.667517"
       d="m 93.944187,452.83664 c 0,9.20521 -7.914562,16.66752 -17.677669,16.66752 -9.763108,0 -17.67767,-7.46231 -17.67767,-16.66752 0,-9.20522 7.914562,-16.66752 17.67767,-16.66752 9.763107,0 17.677669,7.4623 17.677669,16.66752 z"
       transform="matrix(0.83218739,0.38293951,0.41881541,-0.91015131,408.14424,850.08796)" />
    <path
       style="fill:none;stroke:#000000;stroke-width:1;stroke-linecap:butt;stroke-linejoin:miter;stroke-miterlimit:4;stroke-opacity:1;stroke-dasharray:4, 4;stroke-dashoffset:0"
       d="m 576.68842,430.75271 33.51859,63.47887"
       id="path3019-0-9-7-7-5"
       inkscape:connector-curvature="0" />
    <path
       sodipodi:type="arc"
       style="fill:none;stroke:#000000;stroke-width:1.4999727;stroke-miterlimit:4;stroke-dasharray:5.99989077, 5.99989077;stroke-dashoffset:0"
       id="path2985-4-4-2-07-0-3"
       sodipodi:cx="76.266518"
       sodipodi:cy="452.83664"
       sodipodi:rx="17.67767"
       sodipodi:ry="16.667517"
       d="m 93.944187,452.83664 c 0,9.20521 -7.914562,16.66752 -17.677669,16.66752 -9.763108,0 -17.67767,-7.46231 -17.67767,-16.66752 0,-9.20522 7.914562,-16.66752 17.67767,-16.66752 9.763107,0 17.677669,7.4623 17.677669,16.66752 z"
       transform="matrix(0.46155675,0.79129254,0.86542521,-0.50479793,192.42476,677.48154)" />
    <flowRoot
       xml:space="preserve"
       id="flowRoot4008"
       style="font-size:15px;font-style:normal;font-weight:normal;line-height:125%;letter-spacing:0px;word-spacing:0px;fill:#000000;fill-opacity:1;stroke:none;font-family:Sans"><flowRegion
         id="flowRegion4010"><rect
           id="rect4012"
           width="151.52289"
           height="49.497475"
           x="662.6601"
           y="353.33661"
           style="font-size:15px" /></flowRegion><flowPara
         id="flowPara4014"></flowPara></flowRoot>    <flowRoot
       xml:space="preserve"
       id="flowRoot4016"
       style="font-size:40px;font-style:normal;font-weight:normal;line-height:125%;letter-spacing:0px;word-spacing:0px;fill:#000000;fill-opacity:1;stroke:none;font-family:Sans"
       transform="translate(17.172593,35.355339)"><flowRegion
         id="flowRegion4018"><rect
           id="rect4020"
           width="184.85791"
           height="146.47214"
           x="679.83264"
           y="345.2554" /></flowRegion><flowPara
         id="flowPara4022"
         style="font-size:15px">0-skip block (can be made by validator 0x5db1 after 4 sec)</flowPara></flowRoot>    <flowRoot
       xml:space="preserve"
       id="flowRoot4016-3"
       style="font-size:40px;font-style:normal;font-weight:normal;line-height:125%;letter-spacing:0px;word-spacing:0px;fill:#000000;fill-opacity:1;stroke:none;font-family:Sans"
       transform="translate(5.8188378,116.4756)"><flowRegion
         id="flowRegion4018-5"><rect
           id="rect4020-0"
           width="184.85791"
           height="146.47214"
           x="679.83264"
           y="345.2554" /></flowRegion><flowPara
         id="flowPara4022-5"
         style="font-size:15px">1-skip block (can be made by validator 0x7a08 after 12 sec)</flowPara></flowRoot>    <flowRoot
       xml:space="preserve"
       id="flowRoot4016-2"
       style="font-size:40px;font-style:normal;font-weight:normal;line-height:125%;letter-spacing:0px;word-spacing:0px;fill:#000000;fill-opacity:1;stroke:none;font-family:Sans"
       transform="translate(-69.942604,190.21674)"><flowRegion
         id="flowRegion4018-7"><rect
           id="rect4020-3"
           width="184.85791"
           height="146.47214"
           x="679.83264"
           y="345.2554" /></flowRegion><flowPara
         id="flowPara4022-57"
         style="font-size:15px">2-skip block (can be made by validator 0xf924 after 20 sec)</flowPara></flowRoot>  </g>
</svg>
