<?xml version="1.0" encoding="UTF-8" standalone="no"?>
<!-- Created with Inkscape (http://www.inkscape.org/) -->

<svg
   xmlns:dc="http://purl.org/dc/elements/1.1/"
   xmlns:cc="http://creativecommons.org/ns#"
   xmlns:rdf="http://www.w3.org/1999/02/22-rdf-syntax-ns#"
   xmlns:svg="http://www.w3.org/2000/svg"
   xmlns="http://www.w3.org/2000/svg"
   xmlns:sodipodi="http://sodipodi.sourceforge.net/DTD/sodipodi-0.dtd"
   xmlns:inkscape="http://www.inkscape.org/namespaces/inkscape"
   width="1291.3251"
   height="661.93512"
   id="svg5074"
   version="1.1"
   inkscape:version="0.48.4 r9939"
   sodipodi:docname="drawing-5.svg">
  <defs
     id="defs5076">
    <clipPath
       clipPathUnits="userSpaceOnUse"
       id="clipPath6350">
      <rect
         style="fill:none;stroke:none"
         id="rect6352"
         width="842.02094"
         height="666.89154"
         x="806.11633"
         y="236.00015"
         transform="matrix(0.98223778,0.18764044,-0.91197565,0.41024432,0,0)" />
    </clipPath>
    <clipPath
       clipPathUnits="userSpaceOnUse"
       id="clipPath6350-5">
      <rect
         style="fill:none;stroke:none"
         id="rect6352-1"
         width="842.02094"
         height="666.89154"
         x="806.11633"
         y="236.00015"
         transform="matrix(0.98223778,0.18764044,-0.91197565,0.41024432,0,0)" />
    </clipPath>
    <clipPath
       clipPathUnits="userSpaceOnUse"
       id="clipPath6445">
      <rect
         style="fill:none;stroke:none"
         id="rect6447"
         width="1273.5613"
         height="561.2511"
         x="-1816.2045"
         y="-894.64746"
         transform="matrix(-0.98223778,-0.18764044,0.91197565,-0.41024434,0,0)" />
    </clipPath>
  </defs>
  <sodipodi:namedview
     id="base"
     pagecolor="#ffffff"
     bordercolor="#666666"
     borderopacity="1.0"
     inkscape:pageopacity="0.0"
     inkscape:pageshadow="2"
     inkscape:zoom="0.7"
     inkscape:cx="812.14992"
     inkscape:cy="480.33086"
     inkscape:document-units="px"
     inkscape:current-layer="layer1"
     showgrid="false"
     fit-margin-top="0"
     fit-margin-left="0"
     fit-margin-right="0"
     fit-margin-bottom="0"
     inkscape:window-width="1301"
     inkscape:window-height="744"
     inkscape:window-x="65"
     inkscape:window-y="24"
     inkscape:window-maximized="1" />
  <metadata
     id="metadata5079">
    <rdf:RDF>
      <cc:Work
         rdf:about="">
        <dc:format>image/svg+xml</dc:format>
        <dc:type
           rdf:resource="http://purl.org/dc/dcmitype/StillImage" />
        <dc:title></dc:title>
      </cc:Work>
    </rdf:RDF>
  </metadata>
  <g
     inkscape:label="Layer 1"
     inkscape:groupmode="layer"
     id="layer1"
     transform="translate(232.80543,-269.17424)">
    <flowRoot
       xml:space="preserve"
       id="flowRoot4934-4"
       style="font-size:40px;font-style:normal;font-weight:normal;line-height:125%;letter-spacing:0px;word-spacing:0px;fill:#000000;fill-opacity:1;stroke:none;font-family:Sans"
       transform="translate(391.84026,108.87522)"><flowRegion
         id="flowRegion4936-4"><rect
           id="rect4938-7"
           width="188.57143"
           height="57.142876"
           x="337.14285"
           y="773.79077" /></flowRegion><flowPara
         id="flowPara4940-8"
         style="font-size:28px">Receipt 0f57</flowPara></flowRoot>    <path
       style="fill:none;stroke:#000000;stroke-width:1;stroke-linecap:butt;stroke-linejoin:miter;stroke-opacity:1"
       d="M 763.91762,876.78187 744.65381,845.08536"
       id="path3278-4-3-7-0"
       inkscape:connector-curvature="0" />
    <flowRoot
       xml:space="preserve"
       id="flowRoot3032-0-3-2-7"
       style="font-size:40px;font-style:normal;font-weight:normal;text-align:center;line-height:125%;letter-spacing:0px;word-spacing:0px;text-anchor:middle;fill:#000000;fill-opacity:1;stroke:none;font-family:Sans"
       transform="translate(-99.193507,78.511601)"><flowRegion
         id="flowRegion3034-4-5-7-3"><rect
           id="rect3036-9-6-1-4"
           width="107.14284"
           height="145.71429"
           x="124.28571"
           y="229.50504"
           style="text-align:center;text-anchor:middle" /></flowRegion><flowPara
         id="flowPara3038-0-49-4-7"
         style="font-size:24px;text-align:center;text-anchor:middle">Txgroup root</flowPara></flowRoot>    <rect
       style="fill:none;stroke:#000000;stroke-width:2.89214849;stroke-opacity:1"
       id="rect2985"
       width="308.02655"
       height="93.740829"
       x="-170.01224"
       y="293.90192" />
    <path
       style="fill:none;stroke:#000000;stroke-width:3.9994235;stroke-linecap:butt;stroke-linejoin:miter;stroke-opacity:1"
       d="m -71.706617,386.20751 -0.0133,-93.72756"
       id="path2987"
       inkscape:connector-curvature="0" />
    <flowRoot
       xml:space="preserve"
       id="flowRoot3032-0-3"
       style="font-size:40px;font-style:normal;font-weight:normal;text-align:center;line-height:125%;letter-spacing:0px;word-spacing:0px;text-anchor:middle;fill:#000000;fill-opacity:1;stroke:none;font-family:Sans"
       transform="translate(-291.74395,78.800941)"><flowRegion
         id="flowRegion3034-4-5"><rect
           id="rect3036-9-6"
           width="91.428566"
           height="142.85715"
           x="124.28571"
           y="229.50504"
           style="text-align:center;text-anchor:middle" /></flowRegion><flowPara
         id="flowPara3038-0-49"
         style="font-size:24px;text-align:center;text-anchor:middle">Block 124</flowPara></flowRoot>    <path
       style="fill:none;stroke:#000000;stroke-width:4;stroke-linecap:butt;stroke-linejoin:miter;stroke-opacity:1"
       d="m 138.14388,340.05802 131.42858,1.42857"
       id="path3360"
       inkscape:connector-curvature="0" />
    <path
       style="fill:none;stroke:#000000;stroke-width:4;stroke-linecap:butt;stroke-linejoin:miter;stroke-opacity:1"
       d="m -230.80543,340.15019 60.75577,-0.18435"
       id="path3360-7"
       inkscape:connector-curvature="0" />
    <path
       style="fill:none;stroke:#000000;stroke-width:3.9994235;stroke-linecap:butt;stroke-linejoin:miter;stroke-opacity:1"
       d="m 22.747013,387.63246 -0.0133,-93.72756"
       id="path2987-4"
       inkscape:connector-curvature="0" />
    <flowRoot
       xml:space="preserve"
       id="flowRoot3032-0-3-2"
       style="font-size:40px;font-style:normal;font-weight:normal;text-align:center;line-height:125%;letter-spacing:0px;word-spacing:0px;text-anchor:middle;fill:#000000;fill-opacity:1;stroke:none;font-family:Sans"
       transform="translate(-194.72309,78.035321)"><flowRegion
         id="flowRegion3034-4-5-7"><rect
           id="rect3036-9-6-1"
           width="91.428566"
           height="142.85715"
           x="124.28571"
           y="229.50504"
           style="text-align:center;text-anchor:middle" /></flowRegion><flowPara
         id="flowPara3038-0-49-4"
         style="font-size:24px;text-align:center;text-anchor:middle">State root</flowPara></flowRoot>    <flowRoot
       xml:space="preserve"
       id="flowRoot3032-0-3-2-7-9"
       style="font-size:40px;font-style:normal;font-weight:normal;text-align:center;line-height:125%;letter-spacing:0px;word-spacing:0px;text-anchor:middle;fill:#000000;fill-opacity:1;stroke:none;font-family:Sans"
       transform="translate(342.27026,79.662803)"><flowRegion
         id="flowRegion3034-4-5-7-3-7"><rect
           id="rect3036-9-6-1-4-0"
           width="107.14284"
           height="145.71429"
           x="124.28571"
           y="229.50504"
           style="text-align:center;text-anchor:middle" /></flowRegion><flowPara
         id="flowPara3038-0-49-4-7-6"
         style="font-size:24px;text-align:center;text-anchor:middle">Txgroup root</flowPara></flowRoot>    <rect
       style="fill:none;stroke:#000000;stroke-width:2.89214849;stroke-opacity:1"
       id="rect2985-8"
       width="308.02655"
       height="93.740829"
       x="270.44138"
       y="294.04297" />
    <path
       style="fill:none;stroke:#000000;stroke-width:3.9994235;stroke-linecap:butt;stroke-linejoin:miter;stroke-opacity:1"
       d="M 368.74699,386.34856 368.73369,292.621"
       id="path2987-1"
       inkscape:connector-curvature="0" />
    <flowRoot
       xml:space="preserve"
       id="flowRoot3032-0-3-8"
       style="font-size:40px;font-style:normal;font-weight:normal;text-align:center;line-height:125%;letter-spacing:0px;word-spacing:0px;text-anchor:middle;fill:#000000;fill-opacity:1;stroke:none;font-family:Sans"
       transform="translate(148.70966,78.941991)"><flowRegion
         id="flowRegion3034-4-5-6"><rect
           id="rect3036-9-6-2"
           width="91.428566"
           height="142.85715"
           x="124.28571"
           y="229.50504"
           style="text-align:center;text-anchor:middle" /></flowRegion><flowPara
         id="flowPara3038-0-49-7"
         style="font-size:24px;text-align:center;text-anchor:middle">Block 125</flowPara></flowRoot>    <path
       style="fill:none;stroke:#000000;stroke-width:3.9994235;stroke-linecap:butt;stroke-linejoin:miter;stroke-opacity:1"
       d="m 463.20062,387.77351 -0.0133,-93.72756"
       id="path2987-4-0"
       inkscape:connector-curvature="0" />
    <flowRoot
       xml:space="preserve"
       id="flowRoot3032-0-3-2-2"
       style="font-size:40px;font-style:normal;font-weight:normal;text-align:center;line-height:125%;letter-spacing:0px;word-spacing:0px;text-anchor:middle;fill:#000000;fill-opacity:1;stroke:none;font-family:Sans"
       transform="translate(245.73052,78.176371)"><flowRegion
         id="flowRegion3034-4-5-7-4"><rect
           id="rect3036-9-6-1-0"
           width="91.428566"
           height="142.85715"
           x="124.28571"
           y="229.50504"
           style="text-align:center;text-anchor:middle" /></flowRegion><flowPara
         id="flowPara3038-0-49-4-79"
         style="font-size:24px;text-align:center;text-anchor:middle">State root</flowPara></flowRoot>    <path
       style="fill:none;stroke:#000000;stroke-width:4;stroke-linecap:butt;stroke-linejoin:miter;stroke-opacity:1"
       d="m 581.42673,338.34373 131.42858,1.42857"
       id="path3360-3"
       inkscape:connector-curvature="0" />
    <flowRoot
       xml:space="preserve"
       id="flowRoot3032-0-3-2-7-9-2"
       style="font-size:40px;font-style:normal;font-weight:normal;text-align:center;line-height:125%;letter-spacing:0px;word-spacing:0px;text-anchor:middle;fill:#000000;fill-opacity:1;stroke:none;font-family:Sans"
       transform="translate(784.54297,76.938361)"><flowRegion
         id="flowRegion3034-4-5-7-3-7-5"><rect
           id="rect3036-9-6-1-4-0-0"
           width="107.14284"
           height="145.71429"
           x="124.28571"
           y="229.50504"
           style="text-align:center;text-anchor:middle" /></flowRegion><flowPara
         id="flowPara3038-0-49-4-7-6-5"
         style="font-size:24px;text-align:center;text-anchor:middle">Txgroup root</flowPara></flowRoot>    <rect
       style="fill:none;stroke:#000000;stroke-width:2.89214849;stroke-opacity:1"
       id="rect2985-8-9"
       width="308.02655"
       height="93.740829"
       x="713.72418"
       y="292.32867" />
    <path
       style="fill:none;stroke:#000000;stroke-width:3.9994235;stroke-linecap:butt;stroke-linejoin:miter;stroke-opacity:1"
       d="m 812.02987,384.63427 -0.0133,-93.72756"
       id="path2987-1-4"
       inkscape:connector-curvature="0" />
    <flowRoot
       xml:space="preserve"
       id="flowRoot3032-0-3-8-0"
       style="font-size:40px;font-style:normal;font-weight:normal;text-align:center;line-height:125%;letter-spacing:0px;word-spacing:0px;text-anchor:middle;fill:#000000;fill-opacity:1;stroke:none;font-family:Sans"
       transform="translate(591.99251,77.227701)"><flowRegion
         id="flowRegion3034-4-5-6-9"><rect
           id="rect3036-9-6-2-7"
           width="91.428566"
           height="142.85715"
           x="124.28571"
           y="229.50504"
           style="text-align:center;text-anchor:middle" /></flowRegion><flowPara
         id="flowPara3038-0-49-7-4"
         style="font-size:24px;text-align:center;text-anchor:middle">Block 126</flowPara></flowRoot>    <path
       style="fill:none;stroke:#000000;stroke-width:3.9994235;stroke-linecap:butt;stroke-linejoin:miter;stroke-opacity:1"
       d="m 906.48347,386.05922 -0.013,-93.72756"
       id="path2987-4-0-8"
       inkscape:connector-curvature="0" />
    <flowRoot
       xml:space="preserve"
       id="flowRoot3032-0-3-2-2-1"
       style="font-size:40px;font-style:normal;font-weight:normal;text-align:center;line-height:125%;letter-spacing:0px;word-spacing:0px;text-anchor:middle;fill:#000000;fill-opacity:1;stroke:none;font-family:Sans"
       transform="translate(689.01337,76.462081)"><flowRegion
         id="flowRegion3034-4-5-7-4-0"><rect
           id="rect3036-9-6-1-0-5"
           width="91.428566"
           height="142.85715"
           x="124.28571"
           y="229.50504"
           style="text-align:center;text-anchor:middle" /></flowRegion><flowPara
         id="flowPara3038-0-49-4-79-2"
         style="font-size:24px;text-align:center;text-anchor:middle">State root</flowPara></flowRoot>    <rect
       style="fill:none;stroke:#000000;stroke-width:1.21593904;stroke-linecap:butt;stroke-linejoin:miter;stroke-opacity:1"
       id="rect2985-7-5-3"
       width="50.887974"
       height="52.165268"
       x="217.4803"
       y="538.2287" />
    <rect
       style="fill:none;stroke:#000000;stroke-width:1.21593904;stroke-linecap:butt;stroke-linejoin:miter;stroke-opacity:1"
       id="rect2985-7-5-0"
       width="50.887974"
       height="52.165268"
       x="281.40234"
       y="538.04065" />
    <path
       style="fill:none;stroke:#000000;stroke-width:1.21593904;stroke-linecap:butt;stroke-linejoin:miter;stroke-opacity:1"
       d="M 186.73095,468.18208 373.33742,389.18575"
       id="path3126"
       inkscape:connector-curvature="0" />
    <path
       style="fill:none;stroke:#000000;stroke-width:1.15812719;stroke-linecap:butt;stroke-linejoin:miter;stroke-opacity:1"
       d="m 239.18743,469.71902 141.4481,-81.36907"
       id="path3126-6"
       inkscape:connector-curvature="0" />
    <path
       style="fill:none;stroke:#000000;stroke-width:1.08366537;stroke-linecap:butt;stroke-linejoin:miter;stroke-opacity:1"
       d="m 303.07414,468.43894 95.23539,-79.55815"
       id="path3126-6-9"
       inkscape:connector-curvature="0" />
    <path
       style="fill:none;stroke:#000000;stroke-width:0.99065447;stroke-linecap:butt;stroke-linejoin:miter;stroke-opacity:1"
       d="m 366.9458,467.86889 61.08877,-80.06178"
       id="path3126-8"
       inkscape:connector-curvature="0" />
    <path
       style="fill:none;stroke:#000000;stroke-width:1.21593904;stroke-linecap:butt;stroke-linejoin:miter;stroke-opacity:1"
       d="M 179.25985,537.21581 385.74594,388.81214"
       id="path3126-7"
       inkscape:connector-curvature="0" />
    <path
       style="fill:none;stroke:#000000;stroke-width:1.20855951;stroke-linecap:butt;stroke-linejoin:miter;stroke-opacity:1"
       d="M 233.53426,538.09153 407.15568,389.14721"
       id="path3126-6-95"
       inkscape:connector-curvature="0" />
    <path
       style="fill:none;stroke:#000000;stroke-width:1.21593904;stroke-linecap:butt;stroke-linejoin:miter;stroke-opacity:1"
       d="M 295.15761,537.53618 418.34104,389.24867"
       id="path3126-6-9-1"
       inkscape:connector-curvature="0" />
    <path
       style="fill:none;stroke:#000000;stroke-width:1.21593904;stroke-linecap:butt;stroke-linejoin:miter;stroke-opacity:1"
       d="M 348.74666,537.40578 441.83711,388.13451"
       id="path3126-8-9"
       inkscape:connector-curvature="0" />
    <rect
       style="fill:none;stroke:#000000;stroke-width:1.21593904;stroke-linecap:butt;stroke-linejoin:miter;stroke-opacity:1"
       id="rect2985-7-5"
       width="50.887974"
       height="52.165268"
       x="151.16045"
       y="537.8526" />
    <rect
       style="fill:none;stroke:#000000;stroke-width:1.21593904;stroke-linecap:butt;stroke-linejoin:miter;stroke-opacity:1"
       id="rect2985-7-5-3-7"
       width="50.887974"
       height="52.165268"
       x="347.72223"
       y="538.41681" />
    <rect
       style="fill:#ffffff;stroke:#000000;stroke-width:1.21593904;stroke-linecap:butt;stroke-linejoin:miter;stroke-opacity:1"
       id="rect2985-7-58"
       width="50.887974"
       height="52.165268"
       x="217.42146"
       y="468.80765" />
    <rect
       style="fill:#ffffff;stroke:#000000;stroke-width:1.21593904;stroke-linecap:butt;stroke-linejoin:miter;stroke-opacity:1"
       id="rect2985-7-50"
       width="50.887974"
       height="52.165268"
       x="281.34351"
       y="468.6196" />
    <rect
       style="fill:#ffffff;stroke:#000000;stroke-width:1.21593904;stroke-linecap:butt;stroke-linejoin:miter;stroke-opacity:1"
       id="rect2985-7"
       width="50.887974"
       height="52.165268"
       x="150.53017"
       y="468.43152" />
    <rect
       style="fill:#ffffff;stroke:#000000;stroke-width:1.21593904;stroke-linecap:butt;stroke-linejoin:miter;stroke-opacity:1"
       id="rect2985-7-58-5"
       width="50.887974"
       height="52.165268"
       x="347.09198"
       y="468.99573" />
    <rect
       style="fill:none;stroke:#000000;stroke-width:1.21593904;stroke-linecap:butt;stroke-linejoin:miter;stroke-opacity:1"
       id="rect2985-7-5-7-2"
       width="50.942013"
       height="16.990551"
       x="166.57643"
       y="638.38373" />
    <rect
       style="fill:none;stroke:#000000;stroke-width:1.21593904;stroke-linecap:butt;stroke-linejoin:miter;stroke-opacity:1"
       id="rect2985-7-5-7-3-1"
       width="50.942013"
       height="16.990551"
       x="270.40094"
       y="638.50623" />
    <rect
       style="fill:none;stroke:#000000;stroke-width:1.21593904;stroke-linecap:butt;stroke-linejoin:miter;stroke-opacity:1"
       id="rect2985-7-5-7-2-3"
       width="50.942013"
       height="16.990551"
       x="119.15437"
       y="692.82178" />
    <rect
       style="fill:none;stroke:#000000;stroke-width:1.21593904;stroke-linecap:butt;stroke-linejoin:miter;stroke-opacity:1"
       id="rect2985-7-5-7-3-1-4"
       width="50.942013"
       height="16.990551"
       x="183.58385"
       y="692.94434" />
    <rect
       style="fill:none;stroke:#000000;stroke-width:1.21593904;stroke-linecap:butt;stroke-linejoin:miter;stroke-opacity:1"
       id="rect2985-7-5-7-2-3-7"
       width="50.942013"
       height="16.990551"
       x="249.72847"
       y="693.12097" />
    <rect
       style="fill:none;stroke:#000000;stroke-width:1.21593904;stroke-linecap:butt;stroke-linejoin:miter;stroke-opacity:1"
       id="rect2985-7-5-7-3-1-4-8"
       width="50.942013"
       height="16.990551"
       x="314.15796"
       y="692.94434" />
    <path
       style="fill:none;stroke:#000000;stroke-width:1.21593904;stroke-linecap:butt;stroke-linejoin:miter;stroke-opacity:1"
       d="m 191.90293,638.24082 35.65165,-47.39538"
       id="path3278"
       inkscape:connector-curvature="0" />
    <path
       style="fill:none;stroke:#000000;stroke-width:1.21593904;stroke-linecap:butt;stroke-linejoin:miter;stroke-opacity:1"
       d="M 292.61594,638.28941 256.97008,590.00185"
       id="path3278-4"
       inkscape:connector-curvature="0" />
    <path
       style="fill:none;stroke:#000000;stroke-width:1.21593904;stroke-linecap:butt;stroke-linejoin:miter;stroke-opacity:1"
       d="m 156.613,692.89223 24.03751,-37.55671"
       id="path3278-0"
       inkscape:connector-curvature="0" />
    <path
       style="fill:none;stroke:#000000;stroke-width:1.21593904;stroke-linecap:butt;stroke-linejoin:miter;stroke-opacity:1"
       d="M 224.20387,692.82005 200.16634,655.26334"
       id="path3278-4-3"
       inkscape:connector-curvature="0" />
    <path
       style="fill:none;stroke:#000000;stroke-width:1.21593904;stroke-linecap:butt;stroke-linejoin:miter;stroke-opacity:1"
       d="m 261.34753,693.43526 24.03751,-37.5567"
       id="path3278-0-5"
       inkscape:connector-curvature="0" />
    <path
       style="fill:none;stroke:#000000;stroke-width:1.21593904;stroke-linecap:butt;stroke-linejoin:miter;stroke-opacity:1"
       d="m 329.25352,693.03979 -24.03753,-37.5567"
       id="path3278-4-3-6"
       inkscape:connector-curvature="0" />
    <rect
       style="fill:none;stroke:#000000;stroke-width:1.49960399;stroke-linecap:butt;stroke-linejoin:miter;stroke-opacity:1"
       id="rect2985-7-5-7-2-9"
       width="58.369495"
       height="22.554184"
       x="470.48969"
       y="451.13043" />
    <rect
       style="fill:none;stroke:#000000;stroke-width:1.49960399;stroke-linecap:butt;stroke-linejoin:miter;stroke-opacity:1"
       id="rect2985-7-5-7-3-1-7"
       width="58.369495"
       height="22.554184"
       x="589.45209"
       y="451.29306" />
    <path
       style="fill:none;stroke:#000000;stroke-width:1.49960399;stroke-linecap:butt;stroke-linejoin:miter;stroke-opacity:1"
       d="M 499.50884,450.94085 540.3586,388.02564"
       id="path3278-6"
       inkscape:connector-curvature="0" />
    <path
       style="fill:none;stroke:#000000;stroke-width:1.49960399;stroke-linecap:butt;stroke-linejoin:miter;stroke-opacity:1"
       d="M 614.90608,451.00536 574.06296,386.90581"
       id="path3278-4-1"
       inkscape:connector-curvature="0" />
    <path
       style="fill:none;stroke:#000000;stroke-width:1.49960399;stroke-linecap:butt;stroke-linejoin:miter;stroke-opacity:1"
       d="M 459.07354,523.48812 486.6158,473.6333"
       id="path3278-0-7"
       inkscape:connector-curvature="0" />
    <path
       style="fill:none;stroke:#000000;stroke-width:1.49960399;stroke-linecap:butt;stroke-linejoin:miter;stroke-opacity:1"
       d="M 536.51934,523.3923 508.97708,473.53748"
       id="path3278-4-3-65"
       inkscape:connector-curvature="0" />
    <path
       style="fill:none;stroke:#000000;stroke-width:1.49960399;stroke-linecap:butt;stroke-linejoin:miter;stroke-opacity:1"
       d="m 579.07865,524.20897 27.54226,-49.85482"
       id="path3278-0-5-1"
       inkscape:connector-curvature="0" />
    <path
       style="fill:none;stroke:#000000;stroke-width:3.37065411;stroke-linecap:butt;stroke-linejoin:miter;stroke-opacity:1"
       d="M 694.52142,582.74848 630.27879,474.76472"
       id="path3278-4-3-6-8"
       inkscape:connector-curvature="0" />
    <flowRoot
       xml:space="preserve"
       id="flowRoot4730"
       style="font-size:40px;font-style:normal;font-weight:normal;line-height:125%;letter-spacing:0px;word-spacing:0px;fill:#000000;fill-opacity:1;stroke:none;font-family:Sans"
       transform="translate(140.16893,52.406501)"><flowRegion
         id="flowRegion4732"><rect
           id="rect4734"
           width="261.42856"
           height="51.42857"
           x="278.57144"
           y="459.50504" /></flowRegion><flowPara
         id="flowPara4736"
         style="font-size:30px">  ...      ... ...</flowPara></flowRoot>    <flowRoot
       xml:space="preserve"
       id="flowRoot3052-4-3"
       style="font-size:40px;font-style:normal;font-weight:normal;line-height:125%;letter-spacing:0px;word-spacing:0px;fill:#000000;fill-opacity:1;stroke:none;font-family:Sans"
       transform="translate(347.70855,173.70788)"><flowRegion
         id="flowRegion3054-4-3"><rect
           id="rect3056-1-0"
           width="477.14288"
           height="171.42857"
           x="107.14286"
           y="416.64789" /></flowRegion><flowPara
         style="font-size:19px;line-height:125%"
         id="flowPara3183">Shard ID:</flowPara><flowPara
         style="font-size:19px;line-height:125%"
         id="flowPara3187">Pre state: </flowPara><flowPara
         style="font-size:19px;line-height:125%"
         id="flowPara3189">Post state:</flowPara><flowPara
         style="font-size:19px;line-height:125%"
         id="flowPara4738">Tx root:</flowPara><flowPara
         style="font-size:19px;line-height:125%"
         id="flowPara4144">Receipt root:</flowPara></flowRoot>    <path
       style="fill:none;stroke:#000000;stroke-width:0.75630844px;stroke-linecap:butt;stroke-linejoin:miter;stroke-opacity:1"
       d="m 750.49536,712.73469 0,-127.47487"
       id="path2989-6-3"
       inkscape:connector-curvature="0" />
    <flowRoot
       xml:space="preserve"
       id="flowRoot3052-4-3-2"
       style="font-size:40px;font-style:normal;font-weight:normal;line-height:125%;letter-spacing:0px;word-spacing:0px;fill:#000000;fill-opacity:1;stroke:none;font-family:Sans"
       transform="translate(502.98771,173.21489)"><flowRegion
         id="flowRegion3054-4-3-0"><rect
           id="rect3056-1-0-7"
           width="477.14288"
           height="171.42857"
           x="107.14286"
           y="416.64789" /></flowRegion><flowPara
         style="font-size:19px;line-height:125%"
         id="flowPara3189-6">43</flowPara><flowPara
         style="font-size:19px;line-height:125%"
         id="flowPara3247">a138b3ff</flowPara><flowPara
         style="font-size:19px;line-height:125%"
         id="flowPara3249">835680cc</flowPara><flowPara
         style="font-size:19px;line-height:125%"
         id="flowPara4740">43b7ac12</flowPara><flowPara
         style="font-size:19px;line-height:125%"
         id="flowPara4146">fa3819d4</flowPara></flowRoot>    <path
       style="fill:none;stroke:#000000;stroke-width:0.76262575px;stroke-linecap:butt;stroke-linejoin:miter;stroke-opacity:1"
       d="m 898.98777,713.80389 0,-129.61329"
       id="path2989-6-36"
       inkscape:connector-curvature="0" />
    <path
       style="fill:none;stroke:#000000;stroke-width:1.21908402px;stroke-linecap:butt;stroke-linejoin:miter;stroke-opacity:1"
       d="m 752.18729,618.96883 305.72281,0"
       id="path2989-1-9"
       inkscape:connector-curvature="0" />
    <path
       style="fill:none;stroke:#000000;stroke-width:1.21908402px;stroke-linecap:butt;stroke-linejoin:miter;stroke-opacity:1"
       d="m 751.1771,681.25833 305.7228,0"
       id="path2989-1-9-5"
       inkscape:connector-curvature="0" />
    <path
       style="fill:none;stroke:#000000;stroke-width:1.21908402px;stroke-linecap:butt;stroke-linejoin:miter;stroke-opacity:1"
       d="m 751.1771,649.45641 305.7228,0"
       id="path2989-1-9-59"
       inkscape:connector-curvature="0" />
    <flowRoot
       xml:space="preserve"
       id="flowRoot3312"
       style="font-size:40px;font-style:normal;font-weight:normal;line-height:144.00000572%;letter-spacing:0px;word-spacing:0px;fill:#000000;fill-opacity:1;stroke:none;font-family:Sans"
       transform="matrix(1,0,0,1.0833432,427.14502,388.27555)"><flowRegion
         id="flowRegion3314"><rect
           id="rect3316"
           width="305.0661"
           height="130.30969"
           x="339.41125"
           y="179.59038"
           style="line-height:144.00000572%" /></flowRegion><flowPara
         id="flowPara3318"
         style="font-size:20px;font-style:normal;font-variant:normal;font-weight:normal;font-stretch:normal;line-height:144.00000572%;font-family:Ubuntu Mono;-inkscape-font-specification:Ubuntu Mono">&lt;sig #1284&gt;</flowPara><flowPara
         style="font-size:20px;font-style:normal;font-variant:normal;font-weight:normal;font-stretch:normal;line-height:144.00000572%;font-family:Ubuntu Mono;-inkscape-font-specification:Ubuntu Mono"
         id="flowPara3347">&lt;sig #7821&gt;</flowPara><flowPara
         style="font-size:20px;font-style:normal;font-variant:normal;font-weight:normal;font-stretch:normal;line-height:144.00000572%;font-family:Ubuntu Mono;-inkscape-font-specification:Ubuntu Mono"
         id="flowPara3349">&lt;sig #9053&gt;</flowPara><flowPara
         style="font-size:20px;font-style:normal;font-variant:normal;font-weight:normal;font-stretch:normal;line-height:144.00000572%;font-family:Ubuntu Mono;-inkscape-font-specification:Ubuntu Mono"
         id="flowPara3351">&lt;sig #1662&gt;</flowPara></flowRoot>    <flowRoot
       xml:space="preserve"
       id="flowRoot3312-9"
       style="font-size:40px;font-style:normal;font-weight:normal;line-height:144.00000572%;letter-spacing:0px;word-spacing:0px;fill:#000000;fill-opacity:1;stroke:none;font-family:Sans"
       transform="matrix(1,0,0,1.0833432,581.20191,388.77483)"><flowRegion
         id="flowRegion3314-1"><rect
           id="rect3316-0"
           width="305.0661"
           height="130.30969"
           x="339.41125"
           y="179.59038"
           style="line-height:144.00000572%" /></flowRegion><flowPara
         id="flowPara3318-5"
         style="font-size:20px;font-style:normal;font-variant:normal;font-weight:normal;font-stretch:normal;line-height:144.00000572%;font-family:Ubuntu Mono;-inkscape-font-specification:Ubuntu Mono">&lt;sig #2543&gt;</flowPara><flowPara
         style="font-size:20px;font-style:normal;font-variant:normal;font-weight:normal;font-stretch:normal;line-height:144.00000572%;font-family:Ubuntu Mono;-inkscape-font-specification:Ubuntu Mono"
         id="flowPara3347-0">&lt;sig #6118&gt;</flowPara><flowPara
         style="font-size:20px;font-style:normal;font-variant:normal;font-weight:normal;font-stretch:normal;line-height:144.00000572%;font-family:Ubuntu Mono;-inkscape-font-specification:Ubuntu Mono"
         id="flowPara3349-5">&lt;sig #4337&gt;</flowPara><flowPara
         style="font-size:20px;font-style:normal;font-variant:normal;font-weight:normal;font-stretch:normal;line-height:144.00000572%;font-family:Ubuntu Mono;-inkscape-font-specification:Ubuntu Mono"
         id="flowPara3351-5">&lt;sig #4785&gt;</flowPara></flowRoot>    <rect
       style="fill:#ffff00;fill-opacity:0.50196078;stroke:#000000;stroke-width:2"
       id="rect2985-82"
       width="614.02362"
       height="129.78001"
       x="442.58569"
       y="584.30731" />
    <rect
       style="fill:none;stroke:#000000;stroke-width:1;stroke-linecap:butt;stroke-linejoin:miter;stroke-opacity:1"
       id="rect2985-7-5-7-2-4"
       width="40.825214"
       height="14.339416"
       x="560.47931"
       y="758.91711" />
    <rect
       style="fill:none;stroke:#000000;stroke-width:1;stroke-linecap:butt;stroke-linejoin:miter;stroke-opacity:1"
       id="rect2985-7-5-7-3-1-0"
       width="40.825214"
       height="14.339416"
       x="687.68481"
       y="785.02051" />
    <rect
       style="fill:none;stroke:#000000;stroke-width:1;stroke-linecap:butt;stroke-linejoin:miter;stroke-opacity:1"
       id="rect2985-7-5-7-2-3-8"
       width="40.825214"
       height="14.339416"
       x="522.47498"
       y="804.8609" />
    <rect
       style="fill:none;stroke:#000000;stroke-width:1;stroke-linecap:butt;stroke-linejoin:miter;stroke-opacity:1"
       id="rect2985-7-5-7-3-1-4-4"
       width="40.825214"
       height="14.339416"
       x="574.10913"
       y="804.96429" />
    <rect
       style="fill:none;stroke:#000000;stroke-width:1;stroke-linecap:butt;stroke-linejoin:miter;stroke-opacity:1"
       id="rect2985-7-5-7-2-3-7-1"
       width="40.825214"
       height="14.339416"
       x="671.1178"
       y="831.1134" />
    <rect
       style="fill:none;stroke:#000000;stroke-width:1;stroke-linecap:butt;stroke-linejoin:miter;stroke-opacity:1"
       id="rect2985-7-5-7-3-1-4-8-8"
       width="40.825214"
       height="14.339416"
       x="722.75195"
       y="830.96423" />
    <path
       style="fill:none;stroke:#000000;stroke-width:1.36346328;stroke-linecap:butt;stroke-linejoin:miter;stroke-opacity:1"
       d="m 580.95781,758.57921 28.44277,-74.69766"
       id="path3278-09"
       inkscape:connector-curvature="0" />
    <path
       style="fill:none;stroke:#000000;stroke-width:1.36346328;stroke-linecap:butt;stroke-linejoin:miter;stroke-opacity:1"
       d="M 705.30633,784.6558 676.86818,708.55201"
       id="path3278-4-9"
       inkscape:connector-curvature="0" />
    <path
       style="fill:none;stroke:#000000;stroke-width:1;stroke-linecap:butt;stroke-linejoin:miter;stroke-opacity:1"
       d="m 552.49453,804.92035 19.2638,-31.69651"
       id="path3278-0-2"
       inkscape:connector-curvature="0" />
    <path
       style="fill:none;stroke:#000000;stroke-width:1;stroke-linecap:butt;stroke-linejoin:miter;stroke-opacity:1"
       d="M 606.66223,804.85943 587.39842,773.16292"
       id="path3278-4-3-7"
       inkscape:connector-curvature="0" />
    <path
       style="fill:none;stroke:#000000;stroke-width:1;stroke-linecap:butt;stroke-linejoin:miter;stroke-opacity:1"
       d="m 680.42938,831.37865 19.2638,-31.69651"
       id="path3278-0-5-3"
       inkscape:connector-curvature="0" />
    <path
       style="fill:none;stroke:#000000;stroke-width:1;stroke-linecap:butt;stroke-linejoin:miter;stroke-opacity:1"
       d="M 734.84962,831.04489 715.58581,799.34838"
       id="path3278-4-3-6-1"
       inkscape:connector-curvature="0" />
    <flowRoot
       xml:space="preserve"
       id="flowRoot4934"
       style="font-size:40px;font-style:normal;font-weight:normal;line-height:125%;letter-spacing:0px;word-spacing:0px;fill:#000000;fill-opacity:1;stroke:none;font-family:Sans"
       transform="translate(173.88322,50.692211)"><flowRegion
         id="flowRegion4936"><rect
           id="rect4938"
           width="157.14285"
           height="71.428574"
           x="337.14285"
           y="773.79077" /></flowRegion><flowPara
         id="flowPara4940"
         style="font-size:28px">... txs ...</flowPara></flowRoot>    <flowRoot
       xml:space="preserve"
       id="flowRoot4934-46"
       style="font-size:40px;font-style:normal;font-weight:normal;line-height:125%;letter-spacing:0px;word-spacing:0px;fill:#000000;fill-opacity:1;stroke:none;font-family:Sans"
       transform="matrix(1.2478076,0,0,1.1848845,-266.82111,-197.03562)"><flowRegion
         id="flowRegion4936-62"><rect
           id="rect4938-2"
           width="157.14285"
           height="71.428574"
           x="337.14285"
           y="773.79077" /></flowRegion><flowPara
         id="flowPara4940-3"
         style="font-size:28px">... state ...</flowPara></flowRoot>    <path
       sodipodi:type="arc"
       style="fill:#ffff00;fill-opacity:0.50196078;stroke:none"
       id="path5547"
       sodipodi:cx="618.57141"
       sodipodi:cy="505.93362"
       sodipodi:rx="192.85715"
       sodipodi:ry="233.57143"
       d="m 811.42856,505.93362 a 192.85715,233.57143 0 1 1 -385.7143,0 192.85715,233.57143 0 1 1 385.7143,0 z"
       transform="matrix(0.27174787,-0.1451628,0.60409718,0.75988086,143.23572,181.36834)"
       clip-path="url(#clipPath6350)" />
    <path
       sodipodi:type="arc"
       style="fill:#ffff00;fill-opacity:0.50196078;stroke:none"
       id="path5547-8"
       sodipodi:cx="618.57141"
       sodipodi:cy="505.93362"
       sodipodi:rx="192.85715"
       sodipodi:ry="233.57143"
       d="m 811.42856,505.93362 c 0,128.99794 -86.34509,233.57143 -192.85715,233.57143 -106.51206,0 -192.85715,-104.57349 -192.85715,-233.57143 0,-128.99793 86.34509,-233.57142 192.85715,-233.57142 106.51206,0 192.85715,104.57349 192.85715,233.57142 z"
       transform="matrix(-0.11542875,0.09317857,-0.25659881,-0.48776007,914.79428,970.26309)"
       clip-path="url(#clipPath6445)" />
    <rect
       style="fill:#ffff00;fill-opacity:0.50196078;stroke:#000000;stroke-width:0.74177992"
       id="rect2985-82-8"
       width="198.13898"
       height="55.323944"
       x="719.50189"
       y="875.41455" />
    <rect
       style="fill:none;stroke:none"
       id="rect6441"
       width="175.71428"
       height="158.57143"
       x="631.42859"
       y="715.2193" />
    <path
       style="fill:#ffff00;fill-opacity:0;stroke:none"
       d="m 698.25325,71.639281 0,-45.178572 55.71429,0 55.71428,0 0,26.852533 0,26.852532 -0.98214,-0.901454 C 803.74276,74.714649 788.46956,62.297406 781.46754,57.124357 761.96999,42.7197 745.52892,33.492968 731.82634,29.265706 c -9.024,-2.783913 -17.15926,-2.862659 -22.7802,-0.220502 -3.78238,1.777928 -7.382,6.436085 -8.76619,11.344077 -3.95995,14.040888 2.31202,39.860036 17.37306,71.517859 l 2.33624,4.91071 -10.868,0 -10.868,0 0,-45.178569 z"
       id="path6528"
       inkscape:connector-curvature="0"
       transform="translate(-232.80543,269.17424)" />
    <path
       style="fill:#ffff00;fill-opacity:0;stroke:none"
       d="m 698.25325,71.639281 0,-45.178572 55.71429,0 55.71428,0 0,26.852533 0,26.852532 -0.98214,-0.901454 C 803.74276,74.714649 788.46956,62.297406 781.46754,57.124357 761.96999,42.7197 745.52892,33.492968 731.82634,29.265706 c -9.024,-2.783913 -17.15926,-2.862659 -22.7802,-0.220502 -3.78238,1.777928 -7.382,6.436085 -8.76619,11.344077 -3.95995,14.040888 2.31202,39.860036 17.37306,71.517859 l 2.33624,4.91071 -10.868,0 -10.868,0 0,-45.178569 z"
       id="path6530"
       inkscape:connector-curvature="0"
       transform="translate(-232.80543,269.17424)" />
    <path
       style="fill:#ffff00;fill-opacity:0;stroke:none"
       d="m 698.25325,71.639281 0,-45.178572 55.71429,0 55.71428,0 0,26.852533 0,26.852532 -0.98214,-0.901454 C 803.74276,74.714649 788.46956,62.297406 781.46754,57.124357 761.96999,42.7197 745.52892,33.492968 731.82634,29.265706 c -9.024,-2.783913 -17.15926,-2.862659 -22.7802,-0.220502 -3.78238,1.777928 -7.382,6.436085 -8.76619,11.344077 -3.95995,14.040888 2.31202,39.860036 17.37306,71.517859 l 2.33624,4.91071 -10.868,0 -10.868,0 0,-45.178569 z"
       id="path6532"
       inkscape:connector-curvature="0"
       transform="translate(-232.80543,269.17424)" />
    <path
       style="fill:#ffff00;fill-opacity:0.50196081;stroke:none"
       d="m 698.25325,71.639281 0,-45.178572 55.71429,0 55.71428,0 0,26.852533 0,26.852532 -0.98214,-0.901454 C 803.74276,74.714649 788.46956,62.297406 781.46754,57.124357 761.96999,42.7197 745.52892,33.492968 731.82634,29.265706 c -9.024,-2.783913 -17.15926,-2.862659 -22.7802,-0.220502 -3.78238,1.777928 -7.382,6.436085 -8.76619,11.344077 -3.95995,14.040888 2.31202,39.860036 17.37306,71.517859 l 2.33624,4.91071 -10.868,0 -10.868,0 0,-45.178569 z"
       id="path6534"
       inkscape:connector-curvature="0"
       transform="translate(-232.80543,269.17424)" />
    <path
       style="fill:#ffff00;fill-opacity:0.50196078;stroke:none"
       d="m 807.90749,78.693866 c -2.11368,-1.849564 -6.52377,-5.597028 -9.1545,-7.779014 -9.92414,-8.231292 -20.02393,-15.876668 -28.59733,-21.647696 -0.80157,-0.539562 -0.97373,-0.667578 -0.89777,-0.667578 0.0696,0 0.32261,0.153696 0.97596,0.5929 3.84528,2.584909 9.88219,6.899946 13.3195,9.520446 6.74801,5.144482 18.71081,14.877311 23.67048,19.258107 0.41396,0.365641 0.7955,0.701216 0.84787,0.745721 0.0527,0.04476 0.0902,0.104017 0.0839,0.132603 -0.009,0.03881 -0.0703,9.4e-5 -0.2481,-0.155489 l 0,0 z"
       id="path6536"
       inkscape:connector-curvature="0"
       transform="translate(-232.80543,269.17424)" />
    <path
       style="fill:#ffff00;fill-opacity:0.50196078;stroke:none"
       d="m 768.82722,48.374477 c -0.62707,-0.436667 -3.80253,-2.502085 -5.36644,-3.490499 -9.1058,-5.755008 -17.58954,-10.227983 -24.9465,-13.152828 -0.62912,-0.250111 -1.1687,-0.463037 -1.19909,-0.473168 -0.0499,-0.01663 -0.0802,-0.08354 -0.0378,-0.08354 0.01,0 0.53163,0.204802 1.16009,0.455116 7.54631,3.005628 15.69067,7.27042 24.73921,12.954675 2.28139,1.433165 6.22631,4.015341 6.13443,4.015341 -0.0202,0 -0.0557,0.0062 -0.0788,0.01385 -0.0231,0.0076 -0.2054,-0.09991 -0.40506,-0.238949 z"
       id="path6538"
       inkscape:connector-curvature="0"
       transform="translate(-232.80543,269.17424)" />
    <path
       style="fill:#ffff00;fill-opacity:0.50196078;stroke:none"
       d=""
       id="path6542"
       inkscape:connector-curvature="0"
       transform="translate(-232.80543,269.17424)" />
    <path
       style="fill:#ffff00;fill-opacity:0.50196078;stroke:none"
       d=""
       id="path6544"
       inkscape:connector-curvature="0"
       transform="translate(-232.80543,269.17424)" />
    <path
       style="fill:#ffff00;fill-opacity:0.50196078;stroke:none"
       d="m 736.93165,31.119452 c -0.4714,-0.182716 -1.70056,-0.628319 -2.38333,-0.864014 -4.34862,-1.501172 -8.38428,-2.471509 -11.98767,-2.882321 -0.51142,-0.05831 -1.50266,-0.150892 -1.61546,-0.150892 -0.036,0 -0.0655,-0.0071 -0.0655,-0.01578 0,-0.01987 -0.009,-0.02005 0.3867,0.0079 2.6935,0.190113 5.50186,0.67258 8.42057,1.446621 1.98753,0.527093 4.36694,1.299903 6.831,2.218648 0.57772,0.215409 0.74441,0.283479 0.73761,0.301209 -0.005,0.0126 -7e-4,0.03266 0.009,0.04458 0.01,0.01192 0.0118,0.02118 0.004,0.02058 -0.008,-6e-4 -0.15937,-0.05753 -0.33733,-0.126508 l 0,0 z"
       id="path6546"
       inkscape:connector-curvature="0"
       transform="translate(-232.80543,269.17424)" />
    <path
       style="fill:#ffff00;fill-opacity:0.50196078;stroke:none"
       d="m 706.10621,31.039452 c 0.64462,-0.593287 1.62305,-1.288687 2.42279,-1.721944 0.79647,-0.431488 1.89524,-0.873955 2.9698,-1.195922 0.61777,-0.185102 1.67513,-0.451327 1.73917,-0.437893 0.0144,0.003 -0.02,0.01471 -0.0765,0.02599 -0.0564,0.01128 -0.28016,0.06553 -0.49719,0.120546 -2.36124,0.598626 -4.42825,1.582354 -6.19507,2.948354 -0.13456,0.10403 -0.28493,0.223583 -0.33416,0.265673 -0.118,0.100888 -0.13977,0.09727 -0.0289,-0.0048 z"
       id="path6548"
       inkscape:connector-curvature="0"
       transform="translate(-232.80543,269.17424)" />
    <path
       style="fill:#ffff00;fill-opacity:0.50196078;stroke:none"
       d="m 699.17722,47.85538 c 4e-5,-0.269995 0.0786,-1.425791 0.14241,-2.095278 0.19816,-2.079125 0.57639,-4.088633 1.08171,-5.747121 0.27508,-0.90282 0.64968,-1.857933 1.06937,-2.726546 0.0791,-0.16376 0.14606,-0.291153 0.14874,-0.283096 0.003,0.0081 -0.0245,0.07812 -0.0603,0.155693 -0.31485,0.681019 -0.71792,1.75931 -0.99081,2.65064 -0.7173,2.342835 -1.13325,4.877983 -1.30584,7.958898 -0.0106,0.189558 -0.0116,0.193349 -0.0481,0.193349 -0.0354,0 -0.0372,-0.0051 -0.0372,-0.106539 z"
       id="path6550"
       inkscape:connector-curvature="0"
       transform="translate(-232.80543,269.17424)" />
    <path
       style="fill:#ffff00;fill-opacity:0.50196078;stroke:none"
       d="m 700.15047,61.310927 c -0.71441,-4.342511 -1.05112,-8.250166 -1.01494,-11.778536 0.006,-0.538222 0.0146,-1.111106 0.0203,-1.273076 l 0.0102,-0.29449 0.0472,-0.0069 0.0472,-0.0069 -0.01,0.143582 c -0.0534,0.779068 -0.0509,3.152861 0.005,4.381487 0.13273,2.937044 0.4396,5.745626 0.99592,9.115049 0.0172,0.104172 0.0349,0.205384 0.0393,0.224916 0.006,0.02703 9.6e-4,0.03551 -0.0215,0.03551 -0.0265,0 -0.0385,-0.05476 -0.11845,-0.54059 z"
       id="path6552"
       inkscape:connector-curvature="0"
       transform="translate(-232.80543,269.17424)" />
    <path
       style="fill:#ffff00;fill-opacity:0.50196078;stroke:none"
       d="m 704.93196,80.424907 c -1.66562,-5.182339 -3.05743,-10.360899 -3.96316,-14.745859 -0.0484,-0.234387 -0.0911,-0.435037 -0.0949,-0.445888 -0.004,-0.01139 0.006,-0.01973 0.0239,-0.01973 0.019,0 0.0338,0.01356 0.0387,0.03551 0.004,0.01953 0.0758,0.355132 0.15869,0.745776 0.92235,4.346556 2.31293,9.458999 3.88957,14.299972 0.0763,0.234387 0.14373,0.44214 0.14976,0.461672 0.01,0.03142 0.005,0.03551 -0.0369,0.03551 l -0.0478,0 -0.11795,-0.36697 z"
       id="path6554"
       inkscape:connector-curvature="0"
       transform="translate(-232.80543,269.17424)" />
    <path
       style="fill:#ffff00;fill-opacity:0.50196078;stroke:none"
       d=""
       id="path6556"
       inkscape:connector-curvature="0"
       transform="translate(-232.80543,269.17424)" />
    <path
       style="fill:#ffff00;fill-opacity:0.50196078;stroke:none"
       d="m 700.72622,64.483438 c -0.17783,-0.904223 -0.25859,-1.335313 -0.38073,-2.032143 -0.0525,-0.299495 -0.0989,-0.559843 -0.10304,-0.578552 -0.006,-0.02745 -0.002,-0.03247 0.023,-0.02602 0.0172,0.0045 0.0342,0.02627 0.0389,0.0498 0.005,0.02299 0.0408,0.230019 0.0805,0.460066 0.0994,0.575665 0.33666,1.83289 0.4502,2.385091 0.0517,0.251638 0.0941,0.460723 0.0941,0.464635 0,0.0039 -0.0134,0.0071 -0.0297,0.0071 -0.0266,0 -0.0448,-0.07664 -0.17326,-0.729993 l 0,0 z"
       id="path6558"
       inkscape:connector-curvature="0"
       transform="translate(-232.80543,269.17424)" />
    <path
       style="fill:#ffff00;fill-opacity:0.50196078;stroke:none"
       d="m 712.71447,100.98309 c -0.004,-0.007 -0.11009,-0.25333 -0.23617,-0.54848 -2.16797,-5.075425 -4.19697,-10.260692 -5.77352,-14.754693 l -0.0931,-0.265316 0.0572,0.0049 0.0573,0.0049 0.0863,0.244647 c 1.48597,4.21327 3.67972,9.788939 5.75573,14.62883 0.16136,0.3762 0.29339,0.68694 0.29339,0.69054 0,0.0119 -0.14003,0.007 -0.14714,-0.005 z"
       id="path6560"
       inkscape:connector-curvature="0"
       transform="translate(-232.80543,269.17424)" />
    <path
       style="fill:#ffff00;fill-opacity:0.50196078;stroke:none"
       d="m 706.9901,116.99164 0,-0.16573 6.50454,0 c 5.19732,0 6.50297,-0.004 6.49667,-0.0197 -0.004,-0.0108 -0.53858,-1.13484 -1.18722,-2.49776 -1.93833,-4.07283 -2.49441,-5.2593 -3.49163,-7.44987 -0.29222,-0.64191 -1.04967,-2.32373 -1.10361,-2.45041 l -0.0218,-0.0513 0.0772,0 0.0772,0 0.0356,0.0829 c 0.0906,0.21096 0.92305,2.05494 1.30214,2.88445 1.33864,2.92913 2.95435,6.33637 4.29921,9.06623 0.2006,0.40719 0.36473,0.74634 0.36473,0.75367 0,0.007 -3.00441,0.0133 -6.67648,0.0133 l -6.67647,0 0,-0.16573 z"
       id="path6562"
       inkscape:connector-curvature="0"
       transform="translate(-232.80543,269.17424)" />
  </g>
</svg>
