<?xml version="1.0" encoding="UTF-8" standalone="no"?>
<!-- Created with Inkscape (http://www.inkscape.org/) -->

<svg
   xmlns:dc="http://purl.org/dc/elements/1.1/"
   xmlns:cc="http://creativecommons.org/ns#"
   xmlns:rdf="http://www.w3.org/1999/02/22-rdf-syntax-ns#"
   xmlns:svg="http://www.w3.org/2000/svg"
   xmlns="http://www.w3.org/2000/svg"
   xmlns:sodipodi="http://sodipodi.sourceforge.net/DTD/sodipodi-0.dtd"
   xmlns:inkscape="http://www.inkscape.org/namespaces/inkscape"
   width="570.36487"
   height="727.11249"
   id="svg2"
   version="1.1"
   inkscape:version="0.48.4 r9939"
   sodipodi:docname="New document 1">
  <defs
     id="defs4" />
  <sodipodi:namedview
     id="base"
     pagecolor="#ffffff"
     bordercolor="#666666"
     borderopacity="1.0"
     inkscape:pageopacity="0.0"
     inkscape:pageshadow="2"
     inkscape:zoom="1"
     inkscape:cx="383.62953"
     inkscape:cy="464.81884"
     inkscape:document-units="px"
     inkscape:current-layer="layer1"
     showgrid="false"
     fit-margin-top="0"
     fit-margin-left="0"
     fit-margin-right="0"
     fit-margin-bottom="0"
     inkscape:window-width="1301"
     inkscape:window-height="744"
     inkscape:window-x="65"
     inkscape:window-y="24"
     inkscape:window-maximized="1" />
  <metadata
     id="metadata7">
    <rdf:RDF>
      <cc:Work
         rdf:about="">
        <dc:format>image/svg+xml</dc:format>
        <dc:type
           rdf:resource="http://purl.org/dc/dcmitype/StillImage" />
        <dc:title></dc:title>
      </cc:Work>
    </rdf:RDF>
  </metadata>
  <g
     inkscape:label="Layer 1"
     inkscape:groupmode="layer"
     id="layer1"
     transform="translate(-92.944195,-9.6229307)">
    <path
       sodipodi:type="arc"
       style="fill:none;stroke:#000000;stroke-width:2"
       id="path3077-6"
       sodipodi:cx="225.26402"
       sodipodi:cy="325.05234"
       sodipodi:rx="89.90358"
       sodipodi:ry="66.670067"
       d="m 315.1676,325.05234 c 0,36.82086 -40.2512,66.67006 -89.90358,66.67006 -49.65237,0 -89.90358,-29.8492 -89.90358,-66.67006 0,-36.82086 40.25121,-66.67007 89.90358,-66.67007 49.65238,0 89.90358,29.84921 89.90358,66.67007 z"
       transform="matrix(1.2291384,0,0,0.99838355,-72.122613,344.53845)" />
    <path
       style="fill:none;stroke:#000000;stroke-width:1.04481924px;stroke-linecap:butt;stroke-linejoin:miter;stroke-opacity:1"
       d="M 288.11803,624.59625 355.75344,577.1639"
       id="path3079-0"
       inkscape:connector-curvature="0" />
    <path
       style="fill:#ffffff;stroke:none"
       d="m 189.97194,733.56807 c -9.95166,-0.9516 -27.48713,-4.53785 -36.47401,-7.45944 -36.78544,-11.95876 -59.07492,-35.14312 -57.20709,-59.50385 2.56284,-33.42515 45.49157,-59.62579 101.97313,-62.23711 l 13.42626,-0.62074 -13.63706,7.28931 c -7.50039,4.00912 -16.03238,8.81644 -18.95998,10.68293 l -5.32292,3.39363 -20.18344,0 -20.18343,0 0,14.75812 0,14.75812 -4.94296,5.40838 c -8.04233,8.79959 -11.05847,17.29247 -8.10263,22.8155 1.62136,3.02954 9.13867,5.94356 17.04189,6.60614 12.73733,1.06785 36.72825,-3.09947 62.35301,-10.83099 l 13.3163,-4.01779 36.43371,0 36.43372,0 0,-15.5898 0,-15.5898 6.60545,-3.5075 6.60544,-3.50751 3.95617,5.23992 c 12.99948,17.21768 13.47375,35.94214 1.34124,52.95353 -12.69383,17.79845 -38.86253,31.42625 -71.03623,36.99333 -9.55116,1.65266 -34.77331,2.79403 -43.43657,1.96562 z"
       id="path3256-6"
       inkscape:connector-curvature="0" />
    <path
       style="fill:#ffffff;stroke:none"
       d="m 189.97194,733.56807 c -9.95166,-0.9516 -27.48713,-4.53785 -36.47401,-7.45944 -36.78544,-11.95876 -59.07492,-35.14312 -57.20709,-59.50385 2.56267,-33.4229 45.43427,-59.59266 101.97313,-62.24661 l 13.42626,-0.63023 -15.89886,8.59548 c -8.74438,4.72751 -17.22408,9.53911 -18.84377,10.69243 -2.74588,1.95524 -4.31676,2.09695 -23.24455,2.09695 l -20.29965,0 0,14.75133 0,14.75133 -4.63356,5.15363 c -5.54519,6.16759 -9.50858,13.6177 -9.50858,17.87361 0,15.39092 31.3946,15.7731 80.49145,0.97987 l 13.3163,-4.01229 36.43371,0 36.43372,0 0,-15.5898 0,-15.5898 6.60545,-3.5075 6.60544,-3.50751 3.95617,5.23992 c 12.99948,17.21768 13.47375,35.94214 1.34124,52.95353 -12.69383,17.79845 -38.86253,31.42625 -71.03623,36.99333 -9.55116,1.65266 -34.77331,2.79403 -43.43657,1.96562 z"
       id="path3258-8"
       inkscape:connector-curvature="0" />
    <path
       style="fill:#ffffff;stroke:none"
       d="m 189.97194,733.56807 c -9.95166,-0.9516 -27.48713,-4.53785 -36.47401,-7.45944 -36.78544,-11.95876 -59.07492,-35.14312 -57.20709,-59.50385 2.56283,-33.42502 45.48819,-59.62383 101.97313,-62.23767 l 13.42626,-0.62131 -10.6066,5.73295 c -5.83363,3.15312 -14.39953,7.96069 -19.03533,10.6835 l -8.42871,4.95055 -20.10809,0 -20.1081,0 0,14.73676 0,14.73676 -4.57276,5.21376 c -8.85605,10.09745 -11.69253,19.22137 -7.40601,23.82241 8.61087,9.2427 35.2879,7.52391 78.26172,-5.04236 l 13.57601,-3.96985 36.33705,0 36.33703,0 0,-15.56665 0,-15.56665 6.31346,-3.54689 6.31345,-3.54688 3.3061,3.70871 c 1.81835,2.03979 4.96964,7.03231 7.00288,11.09449 7.08849,14.16209 5.52832,29.46319 -4.42759,43.42271 -12.69383,17.79845 -38.86253,31.42625 -71.03623,36.99333 -9.55116,1.65266 -34.77331,2.79403 -43.43657,1.96562 z"
       id="path3260-0"
       inkscape:connector-curvature="0" />
    <path
       style="fill:#ffffff;stroke:none"
       d="m 189.97194,733.56807 c -18.6301,-1.78146 -39.84913,-7.52865 -54.52647,-14.76854 -45.24747,-22.31921 -52.48876,-62.16766 -16.25821,-89.4682 19.64142,-14.80025 47.08499,-23.46804 79.07671,-24.97562 l 13.42626,-0.6327 -14.14214,7.73935 c -7.77818,4.25665 -16.30817,9.06935 -18.95554,10.6949 l -4.8134,2.95554 -20.18788,0 -20.18787,0 0,14.73676 0,14.73676 -4.57276,5.21376 c -5.32881,6.07577 -9.56938,14.03522 -9.56938,17.96149 0,1.51504 1.1095,4.07318 2.46555,5.68476 7.89729,9.38538 36.63296,7.45593 79.46096,-5.3354 l 11.72091,-3.50065 36.51388,0 36.51388,0 0,-15.56524 0,-15.56525 6.31346,-3.60088 6.31345,-3.60089 3.3061,3.7613 c 1.81835,2.06872 4.96964,7.08491 7.00288,11.14709 7.08849,14.16209 5.52832,29.46319 -4.42759,43.42271 -12.69383,17.79845 -38.86253,31.42625 -71.03623,36.99333 -9.55116,1.65266 -34.77331,2.79403 -43.43657,1.96562 z"
       id="path3262-3"
       inkscape:connector-curvature="0" />
    <path
       style="fill:#ffffff;stroke:none"
       d="m 189.46686,733.572 c -10.39953,-1.14338 -27.36814,-4.66804 -35.96893,-7.47135 -59.7822,-19.48512 -75.895414,-65.43427 -34.01319,-96.99347 19.39788,-14.61674 46.82891,-23.23737 78.77923,-24.75761 l 13.42626,-0.63884 -12.70252,7.01342 c -6.98639,3.85738 -15.53391,8.67284 -18.99449,10.70103 l -6.29196,3.68762 -20.14893,0 -20.14893,0 0,14.73864 0,14.73864 -4.42726,5.21187 c -8.23698,9.69676 -11.26362,17.85003 -8.30339,22.36791 6.82665,10.41879 34.43934,9.1798 78.3842,-3.51713 l 13.99117,-4.04245 36.44416,0 36.44416,0 0,-15.59887 0,-15.59887 6.31346,-3.59673 6.31345,-3.59673 3.3061,3.79077 c 1.81835,2.08493 4.96964,7.11438 7.00288,11.17656 7.08849,14.16209 5.52832,29.46319 -4.42759,43.42271 -12.68982,17.79282 -39.83894,31.89024 -71.51118,37.1328 -9.20382,1.52346 -35.9957,2.65149 -43.4667,1.83008 z"
       id="path3264-7"
       inkscape:connector-curvature="0" />
    <path
       style="fill:#ffffff;stroke:none"
       d="m 185.42625,733.03369 c -29.57227,-3.33495 -57.88982,-15.06242 -73.49239,-30.43626 -24.93707,-24.5715 -19.99784,-55.45603 12.30302,-76.9296 18.92266,-12.57975 44.58245,-19.95085 74.32137,-21.34972 l 13.13198,-0.61771 -16.55907,9.23461 c -9.10749,5.07904 -17.50452,9.89684 -18.66006,10.70621 -1.67215,1.17122 -6.2818,1.47158 -22.58434,1.47158 l -20.48336,0 0,14.66149 0,14.66148 -4.7144,5.788 c -6.12553,7.52051 -9.7964,15.45918 -8.94365,19.34169 1.42124,6.4709 7.9219,9.08225 22.74942,9.13855 15.71107,0.0597 35.08165,-3.57011 61.5448,-11.53262 8.43547,-2.53816 8.84066,-2.56111 45.20432,-2.56111 l 36.69255,0 0,-15.59887 0,-15.59887 6.31346,-3.59673 6.31345,-3.59673 3.3061,3.79077 c 1.81835,2.08493 4.96266,7.10025 6.98736,11.14517 7.29571,14.57529 5.50519,30.19985 -5.06928,44.23595 -20.47232,27.17409 -70.39706,43.05178 -118.36128,37.64272 z"
       id="path3266-3"
       inkscape:connector-curvature="0" />
    <rect
       style="fill:none;stroke:#000000;stroke-width:1.90347385"
       id="rect3081-7-8-7"
       width="99.091484"
       height="46.563545"
       x="153.70721"
       y="643.09833" />
    <flowRoot
       xml:space="preserve"
       id="flowRoot3083-7-0-3"
       style="font-size:20px;font-style:normal;font-weight:normal;line-height:125%;letter-spacing:0px;word-spacing:0px;fill:#000000;fill-opacity:1;stroke:none;font-family:Sans"
       transform="translate(-29.082123,348.25666)"><flowRegion
         id="flowRegion3085-5-2-9"><rect
           id="rect3087-6-3-3"
           width="173.74625"
           height="119.19799"
           x="186.87822"
           y="298.78839"
           style="font-size:20px" /></flowRegion><flowPara
         id="flowPara3091-3-4-0"
         style="font-size:14px">A: 400 coins</flowPara><flowPara
         style="font-size:14px"
         id="flowPara3170-5-8">C: 730 coins</flowPara></flowRoot>    <path
       sodipodi:type="arc"
       style="fill:#ffff00;stroke:none"
       id="path3244-7"
       sodipodi:cx="179.30208"
       sodipodi:cy="516.98132"
       sodipodi:rx="136.87567"
       sodipodi:ry="33.335033"
       d="m 316.17775,516.98132 c 0,18.41043 -61.28133,33.33504 -136.87567,33.33504 -75.59435,0 -136.875673,-14.92461 -136.875673,-33.33504 0,-18.41043 61.281323,-33.33503 136.875673,-33.33503 75.59434,0 136.87567,14.9246 136.87567,33.33503 z"
       transform="matrix(-0.91295168,-0.40806769,-0.40806769,0.91295168,886.65751,48.5506)" />
    <rect
       style="fill:none;stroke:#000000;stroke-width:2.32491112"
       id="rect3081-9"
       width="149.17767"
       height="46.142109"
       x="-622.42896"
       y="448.55511"
       transform="scale(-1,1)" />
    <path
       style="fill:#ffffff;stroke:none"
       d="m 627.05249,509.07147 c 6.524,-1.75459 9.82257,-4.9826 9.81045,-9.60059 -0.0106,-4.05483 -3.97769,-11.47085 -9.4972,-17.75412 l -3.54945,-4.04061 -0.0379,9.34391 -0.0379,9.34391 -37.62818,0.0821 -37.62818,0.0821 7.57614,2.43018 c 28.98107,9.29617 58.43087,13.49138 70.99228,10.11306 z"
       id="path3250-1"
       inkscape:connector-curvature="0" />
    <path
       style="fill:#ffff00;stroke:none"
       d="m 620.70997,461.63739 0,-11.74044 -15.74613,0 -15.74614,0 11.45299,8.17011 c 6.29914,4.49356 12.58941,9.17563 13.97837,10.40458 6.4365,5.69506 6.06091,6.11857 6.06091,-6.83425 z"
       id="path3252-9"
       inkscape:connector-curvature="0" />
    <path
       style="fill:#ffff00;stroke:none"
       d="m 527.77594,490.39239 c -12.65154,-4.7474 -32.21831,-13.14752 -41.59765,-17.85811 -4.87828,-2.45002 -9.33326,-4.45458 -9.89994,-4.45458 -0.6454,0 -1.03034,4.71749 -1.03034,12.6269 l 0,12.62691 30.05204,-0.0491 30.05203,-0.0491 -7.57614,-2.84289 z"
       id="path3254-9"
       inkscape:connector-curvature="0" />
    <path
       style="fill:#ffffff;stroke:none"
       d="m 590.07215,521.94312 c -12.72678,-2.22238 -23.76498,-4.98965 -38.51207,-9.65496 -2.22233,-0.70304 -4.32471,-1.40655 -4.67195,-1.56335 -0.47386,-0.21397 8.78636,-0.31689 37.12311,-0.41259 l 37.75445,-0.1275 -39.12237,-0.0619 c -21.5173,-0.034 -39.07501,-0.0156 -39.01714,0.0409 0.50182,0.49033 21.55196,6.67915 28.51576,8.38374 8.1644,1.99847 20.77735,4.432 22.64092,4.36832 0.39537,-0.0135 -1.72445,-0.45121 -4.71071,-0.97268 z"
       id="path3274-2"
       inkscape:connector-curvature="0" />
    <path
       style="fill:#ffffff;stroke:none"
       d="m 625.74023,509.63385 c 3.67107,-0.63839 6.33586,-1.68355 8.32727,-3.26605 1.1255,-0.89439 1.93604,-1.93095 2.61912,-3.34945 0.54096,-1.12338 0.74138,-1.97919 0.74138,-3.16571 0,-4.18355 -4.43959,-12.62845 -9.70488,-18.46044 -1.64316,-1.82002 -3.55194,-3.73432 -3.63787,-3.6484 -0.0385,0.0385 0.72019,0.96808 1.686,2.06569 2.44012,2.77309 3.49233,4.04679 4.67363,5.65746 3.04351,4.1497 5.29499,8.41719 6.10603,11.57346 1.25003,4.86464 -0.93196,8.70715 -6.21548,10.94553 -1.9285,0.81701 -4.85701,1.61753 -6.67076,1.82348 -0.37371,0.0424 -0.35421,0.0513 0.12627,0.0574 0.31252,0.004 1.18969,-0.10086 1.94929,-0.23295 l 0,0 z"
       id="path3278-6"
       inkscape:connector-curvature="0" />
    <path
       style="fill:#ffffff;stroke:none"
       d="m 616.4687,524.31484 c 1.84544,-0.0618 3.13197,-0.14564 4.57725,-0.2984 0.94764,-0.10017 1.00751,-0.11348 0.66292,-0.14735 -0.20985,-0.0206 -0.84346,0.0121 -1.42053,0.0733 -2.14394,0.22757 -3.39271,0.27961 -6.6607,0.27756 -3.68706,-0.002 -6.05452,-0.11583 -9.91212,-0.47532 -2.79085,-0.26008 -6.88069,-0.76939 -9.61871,-1.19781 -0.88035,-0.13775 -1.64743,-0.248 -1.70464,-0.245 -0.0572,0.003 0.42508,0.11321 1.07173,0.2449 1.44454,0.29418 1.68527,0.40363 0.78144,0.35526 -2.82592,-0.15123 -16.34074,-2.84036 -23.39134,-4.65433 -3.96203,-1.01934 -11.47045,-3.14215 -17.85189,-5.04716 -1.91981,-0.5731 -2.65337,-0.76505 -2.00392,-0.52435 0.51206,0.18978 6.52042,2.01127 9.0598,2.74656 15.48819,4.48469 29.74234,7.3927 41.57409,8.4816 3.86226,0.35546 5.31531,0.42408 9.40705,0.4443 2.11816,0.0105 4.56147,-0.005 5.42957,-0.0338 z"
       id="path3290-3"
       inkscape:connector-curvature="0" />
    <path
       style="fill:#ffffff;stroke:none"
       d="m 616.62654,524.14876 c 1.93853,-0.10224 4.72367,-0.34401 4.97184,-0.43159 0.0625,-0.022 0.0789,-1.41809 0.0789,-6.69433 l 0,-6.66648 -0.74183,0.0344 c -0.40801,0.0189 -11.49522,0.0491 -24.63825,0.067 -13.14304,0.0179 -28.86827,0.0444 -34.94497,0.0588 -6.89295,0.0163 -10.16993,0.006 -8.71257,-0.0263 3.13051,-0.0703 20.88592,-0.17768 39.08028,-0.23634 l 14.83662,-0.0478 -24.52777,-0.0354 c -26.17446,-0.0378 -38.33527,-0.012 -38.16931,0.0809 0.40668,0.22759 6.88631,2.23481 12.66296,3.92266 11.44191,3.34314 16.44547,4.64041 24.02269,6.22835 6.27125,1.31426 12.86615,2.48633 13.81647,2.45553 l 0.1994,-0.006 -0.22098,-0.0552 c -0.30004,-0.075 -3.63204,-0.70562 -6.81366,-1.28957 -10.94517,-2.00886 -20.90855,-4.5153 -33.624,-8.45863 -3.13105,-0.97101 -6.91382,-2.21767 -7.00461,-2.30846 -0.0381,-0.0381 -0.0187,-0.0601 0.0531,-0.0601 0.0623,0 1.83651,0.5523 3.94275,1.22732 5.10563,1.6363 8.39394,2.64644 11.59507,3.56191 17.56084,5.02207 34.58205,8.10551 47.79284,8.65781 1.34697,0.0563 5.42677,0.0705 6.34503,0.0221 z"
       id="path3292-1"
       inkscape:connector-curvature="0" />
    <path
       style="fill:#ffffff;stroke:none"
       d="m 609.693,496.3639 c 7.674,-0.0177 13.95983,-0.0392 13.96851,-0.0476 0.009,-0.008 0.009,-4.34094 2.1e-4,-9.62767 l -0.0156,-9.61223 -0.0162,9.39126 -0.0162,9.39126 -39.56936,0.003 -39.56937,0.003 0.59178,0.21768 c 0.58055,0.21354 0.82537,0.27349 0.64118,0.157 -0.0511,-0.0323 -0.0764,-0.0753 -0.0562,-0.0954 0.0487,-0.0487 68.56966,-0.0281 73.79548,0.0222 3.08383,0.0297 0.34864,0.0529 -11.26951,0.0954 -8.43793,0.0309 -19.70271,0.0756 -25.03284,0.0992 l -9.69115,0.043 11.14324,-0.004 c 6.12879,-0.002 17.42198,-0.0187 25.09598,-0.0364 l 0,0 z"
       id="path3294-4"
       inkscape:connector-curvature="0" />
    <path
       style="fill:#ffffff;stroke:none"
       d="m 626.11429,509.61889 c 1.33429,-0.23124 2.97357,-0.64344 3.89515,-0.97945 2.88058,-1.05028 4.81171,-2.44268 6.07326,-4.37903 1.02002,-1.56562 1.34616,-2.53974 1.38702,-4.14282 0.0177,-0.6924 -6.1e-4,-0.94301 -0.12147,-1.66703 -0.38878,-2.32902 -1.65766,-5.45013 -3.56134,-8.75991 -0.51931,-0.90288 -1.33591,-2.20971 -1.38079,-2.20971 -0.0214,0 0.12958,0.2686 0.33548,0.59688 2.89327,4.61289 4.70529,9.16667 4.70529,11.82484 0,1.11643 -0.26026,2.14908 -0.82649,3.27927 -0.82338,1.64349 -1.81038,2.75497 -3.37191,3.79718 -1.69309,1.13003 -3.88199,1.95037 -6.72382,2.51992 -0.37329,0.0748 -0.63608,0.13546 -0.584,0.13478 0.0521,-6.9e-4 0.13022,-0.007 0.17362,-0.0149 z"
       id="path3296-0"
       inkscape:connector-curvature="0" />
    <path
       style="fill:#ffffff;stroke:none"
       d="m 623.72661,495.15968 c 0.0109,-0.65542 0.0289,-4.38316 0.04,-8.28387 0.0111,-3.90071 0.029,-7.57034 0.0396,-8.15475 l 0.0194,-1.06254 0.51581,0.58892 c 0.28369,0.3239 0.52338,0.58134 0.53263,0.57209 0.009,-0.009 -0.0606,-0.10623 -0.15522,-0.2155 -0.43598,-0.50344 -0.69976,-0.87738 -0.61891,-0.87738 0.17857,0 2.76763,2.64922 4.18032,4.27746 1.22205,1.4085 2.52628,3.12974 3.67675,4.85229 0.24021,0.35967 0.44363,0.6428 0.45205,0.62918 0.0198,-0.032 -0.81023,-1.28468 -1.41512,-2.13572 -1.40542,-1.97733 -2.4783,-3.25467 -4.6265,-5.5082 -0.67234,-0.7053 -2.71575,-2.76032 -2.7259,-2.74138 -0.003,0.006 0.003,1.0478 0.0144,2.31522 0.0111,1.26743 0.0219,5.58911 0.0239,9.60374 l 0.004,7.29933 -0.70237,0.009 -0.70237,0.009 0.71398,0.007 0.71398,0.007 0.0198,-1.19166 z"
       id="path3298-5"
       inkscape:connector-curvature="0" />
    <path
       style="fill:#ffff00;stroke:none"
       d="m 621.21532,462.21797 0,-12.4764 -16.79688,7.3e-4 -16.79687,7.4e-4 0.28125,0.18058 c 9.92973,6.37544 17.13662,11.45048 24.07924,16.95644 2.80253,2.22259 7.13304,5.88356 8.70201,7.35659 0.17187,0.16137 0.36172,0.33037 0.42187,0.37556 0.10408,0.0782 0.10938,-0.52232 0.10938,-12.39424 z m -2.21354,9.87153 c -0.50411,-0.24839 -1.4132,-0.96682 -2.9917,-2.36426 -1.8022,-1.59549 -2.34478,-2.03698 -4.63851,-3.77428 -3.75262,-2.84229 -8.21638,-6.07884 -17.14055,-12.42814 -2.75397,-1.95938 -5.00912,-3.5836 -5.01146,-3.60938 -0.002,-0.0258 7.08452,-0.0469 15.74856,-0.0469 l 15.75281,0 -0.025,10.10937 c -0.0218,8.80644 -0.0376,10.18188 -0.12268,10.67188 -0.27509,1.58463 -0.62668,1.90719 -1.57144,1.44168 z"
       id="path3302-7"
       inkscape:connector-curvature="0" />
    <path
       style="fill:#ffff00;stroke:none"
       d="m 536.87157,493.32472 c -0.24063,-0.088 -1.84375,-0.67439 -3.5625,-1.30307 -18.51566,-6.77256 -38.6395,-15.46234 -56.60903,-24.44462 -1.19434,-0.597 -2.18575,-1.08546 -2.20312,-1.08546 -0.0174,0 -0.0316,6.075 -0.0316,13.5 l 0,13.5 31.42187,-0.003 31.42188,-0.003 -0.4375,-0.16002 0,0 z m -61.65591,-7.47378 c 1.9e-4,-4.13359 0.0289,-8.55625 0.0637,-9.82812 0.14122,-5.15161 0.46621,-7.81736 0.9684,-7.9434 0.38894,-0.0976 3.51263,1.27784 9.03002,3.97618 5.16929,2.5281 7.75133,3.73853 12.5,5.85988 11.55088,5.16004 22.21884,9.53255 34.26744,14.04527 1.81429,0.67953 3.28148,1.25274 3.26043,1.27379 -0.0331,0.0331 -11.39033,0.0594 -51.51225,0.11923 l -8.57812,0.0128 3.7e-4,-7.51563 -3e-5,0 z"
       id="path3304-5"
       inkscape:connector-curvature="0" />
    <flowRoot
       xml:space="preserve"
       id="flowRoot3083-1"
       style="font-size:20px;font-style:normal;font-weight:normal;line-height:125%;letter-spacing:0px;word-spacing:0px;fill:#000000;fill-opacity:1;stroke:none;font-family:Sans"
       transform="translate(289.68666,154.75605)"><flowRegion
         id="flowRegion3085-2"><rect
           id="rect3087-4"
           width="166.74623"
           height="116.198"
           x="186.87822"
           y="298.78839"
           style="font-size:20px" /></flowRegion><flowPara
         id="flowPara3091-0"
         style="font-size:13px">&quot;Payment successful&quot;</flowPara><flowPara
         style="font-size:13px"
         id="flowPara3740">ID: 17265715249</flowPara></flowRoot>    <path
       sodipodi:type="arc"
       style="fill:#ffff00;stroke:none"
       id="path3244"
       sodipodi:cx="179.30208"
       sodipodi:cy="516.98132"
       sodipodi:rx="136.87567"
       sodipodi:ry="33.335033"
       d="m 316.17775,516.98132 c 0,18.41043 -61.28133,33.33504 -136.87567,33.33504 -75.59435,0 -136.875673,-14.92461 -136.875673,-33.33504 0,-18.41043 61.281323,-33.33503 136.875673,-33.33503 75.59434,0 136.87567,14.9246 136.87567,33.33503 z"
       transform="matrix(0.91295168,-0.40806769,0.40806769,0.91295168,-129.71582,-117.21611)" />
    <rect
       style="fill:none;stroke:#000000;stroke-width:1.65041161"
       id="rect2985"
       width="43.206734"
       height="43.422096"
       x="356.29221"
       y="190.17941" />
    <rect
       style="fill:none;stroke:#000000;stroke-width:1.65041161"
       id="rect2985-6"
       width="43.206734"
       height="43.422096"
       x="356.2749"
       y="348.81335" />
    <rect
       style="fill:none;stroke:#000000;stroke-width:1.65041161"
       id="rect2985-6-3"
       width="43.206734"
       height="43.422096"
       x="356.19366"
       y="534.91998" />
    <path
       sodipodi:type="arc"
       style="fill:none;stroke:#000000;stroke-width:2"
       id="path3077"
       sodipodi:cx="225.26402"
       sodipodi:cy="325.05234"
       sodipodi:rx="89.90358"
       sodipodi:ry="66.670067"
       d="m 315.1676,325.05234 c 0,36.82086 -40.2512,66.67006 -89.90358,66.67006 -49.65237,0 -89.90358,-29.8492 -89.90358,-66.67006 0,-36.82086 40.25121,-66.67007 89.90358,-66.67007 49.65238,0 89.90358,29.84921 89.90358,66.67007 z"
       transform="matrix(1.2291384,0,0,0.99838355,-72.324755,0.52543027)" />
    <path
       style="fill:none;stroke:#000000;stroke-width:1.04481924px;stroke-linecap:butt;stroke-linejoin:miter;stroke-opacity:1"
       d="m 287.91588,280.58323 67.63541,-47.43235"
       id="path3079"
       inkscape:connector-curvature="0" />
    <rect
       style="fill:none;stroke:#000000;stroke-width:2.32491112"
       id="rect3081"
       width="149.17767"
       height="46.142109"
       x="134.51273"
       y="282.78842" />
    <rect
       style="fill:none;stroke:#000000;stroke-width:1.65041161"
       id="rect2985-63"
       width="43.206734"
       height="43.422096"
       x="356.1937"
       y="41.315903" />
    <path
       sodipodi:type="arc"
       style="fill:none;stroke:#000000;stroke-width:2"
       id="path3077-2"
       sodipodi:cx="225.26402"
       sodipodi:cy="325.05234"
       sodipodi:rx="89.90358"
       sodipodi:ry="66.670067"
       d="m 315.1676,325.05234 c 0,36.82086 -40.2512,66.67006 -89.90358,66.67006 -49.65237,0 -89.90358,-29.8492 -89.90358,-66.67006 0,-36.82086 40.25121,-66.67007 89.90358,-66.67007 49.65238,0 89.90358,29.84921 89.90358,66.67007 z"
       transform="matrix(1.2291384,0,0,0.99838355,-70.559534,-148.72207)" />
    <path
       style="fill:none;stroke:#000000;stroke-width:1.04481924px;stroke-linecap:butt;stroke-linejoin:miter;stroke-opacity:1"
       d="M 289.6811,131.33573 357.31651,83.903386"
       id="path3079-5"
       inkscape:connector-curvature="0" />
    <rect
       style="fill:none;stroke:#000000;stroke-width:1.90347385"
       id="rect3081-7"
       width="99.091484"
       height="46.563545"
       x="154.06723"
       y="153.3302" />
    <flowRoot
       xml:space="preserve"
       id="flowRoot3083-7"
       style="font-size:20px;font-style:normal;font-weight:normal;line-height:125%;letter-spacing:0px;word-spacing:0px;fill:#000000;fill-opacity:1;stroke:none;font-family:Sans"
       transform="translate(-28.722102,-141.51147)"><flowRegion
         id="flowRegion3085-5"><rect
           id="rect3087-6"
           width="173.74625"
           height="119.19799"
           x="186.87822"
           y="298.78839"
           style="font-size:20px" /></flowRegion><flowPara
         id="flowPara3091-3"
         style="font-size:14px">A: 500 coins</flowPara><flowPara
         style="font-size:14px"
         id="flowPara3170">C: 730 coins</flowPara></flowRoot>    <path
       sodipodi:type="arc"
       style="fill:none;stroke:#000000;stroke-width:2"
       id="path3077-2-2"
       sodipodi:cx="225.26402"
       sodipodi:cy="325.05234"
       sodipodi:rx="89.90358"
       sodipodi:ry="66.670067"
       d="m 315.1676,325.05234 c 0,36.82086 -40.2512,66.67006 -89.90358,66.67006 -49.65237,0 -89.90358,-29.8492 -89.90358,-66.67006 0,-36.82086 40.25121,-66.67007 89.90358,-66.67007 49.65238,0 89.90358,29.84921 89.90358,66.67007 z"
       transform="matrix(-1.2258034,0,0,1.6163547,826.41253,-9.9883196)" />
    <path
       style="fill:none;stroke:#000000;stroke-width:1.08918643px;stroke-linecap:butt;stroke-linejoin:miter;stroke-opacity:1"
       d="M 469.90098,442.42024 399.30993,393.03225"
       id="path3079-5-1"
       inkscape:connector-curvature="0" />
    <rect
       style="fill:none;stroke:#000000;stroke-width:1.80255926"
       id="rect3081-7-4"
       width="99.192398"
       height="41.714714"
       x="501.39511"
       y="561.33618" />
    <flowRoot
       xml:space="preserve"
       id="flowRoot3083-7-2"
       style="font-size:20px;font-style:normal;font-weight:normal;line-height:125%;letter-spacing:0px;word-spacing:0px;fill:#000000;fill-opacity:1;stroke:none;font-family:Sans"
       transform="translate(318.65625,265.59521)"><flowRegion
         id="flowRegion3085-5-22"><rect
           id="rect3087-6-30"
           width="173.74625"
           height="119.19799"
           x="186.87822"
           y="298.78839"
           style="font-size:20px" /></flowRegion><flowPara
         style="font-size:14px"
         id="flowPara3170-2">B: 200 coins</flowPara><flowPara
         style="font-size:14px"
         id="flowPara3308">D: 820 coins</flowPara></flowRoot>    <path
       style="fill:#ffffff;stroke:none"
       d="m 129.8892,343.30476 c -6.524,-1.75459 -9.82257,-4.9826 -9.81045,-9.60059 0.0106,-4.05483 3.97769,-11.47085 9.4972,-17.75412 l 3.54945,-4.04061 0.0379,9.34391 0.0379,9.34391 37.62818,0.0821 37.62818,0.0821 -7.57614,2.43018 c -28.98107,9.29617 -58.43087,13.49138 -70.99228,10.11306 z"
       id="path3250"
       inkscape:connector-curvature="0" />
    <path
       style="fill:#ffff00;stroke:none"
       d="m 136.23172,295.87068 0,-11.74044 15.74613,0 15.74614,0 -11.45299,8.17011 c -6.29914,4.49356 -12.58941,9.17563 -13.97837,10.40458 -6.4365,5.69506 -6.06091,6.11857 -6.06091,-6.83425 z"
       id="path3252"
       inkscape:connector-curvature="0" />
    <path
       style="fill:#ffff00;stroke:none"
       d="m 229.16575,324.62568 c 12.65154,-4.7474 32.21831,-13.14752 41.59765,-17.85811 4.87828,-2.45002 9.33326,-4.45458 9.89994,-4.45458 0.6454,0 1.03034,4.71749 1.03034,12.6269 l 0,12.62691 -30.05204,-0.0491 -30.05203,-0.0491 7.57614,-2.84289 z"
       id="path3254"
       inkscape:connector-curvature="0" />
    <path
       style="fill:#ffffff;stroke:none"
       d="m 189.7698,389.55505 c -9.95166,-0.9516 -27.48713,-4.53785 -36.47401,-7.45944 -36.78544,-11.95876 -59.074925,-35.14312 -57.207091,-59.50385 2.56284,-33.42515 45.491571,-59.62579 101.973121,-62.23711 l 13.42626,-0.62074 -13.63706,7.28931 c -7.50038,4.00912 -16.03237,8.81644 -18.95997,10.68293 l -5.32292,3.39363 -20.18344,0 -20.18343,0 0,14.75812 0,14.75812 -4.94296,5.40838 c -8.04233,8.79959 -11.05847,17.29247 -8.10263,22.8155 1.62136,3.02954 9.13867,5.94356 17.04189,6.60614 12.73733,1.06785 36.72825,-3.09947 62.353,-10.83099 l 13.3163,-4.01779 36.43371,0 36.43372,0 0,-15.5898 0,-15.5898 6.60545,-3.5075 6.60544,-3.50751 3.95617,5.23992 c 12.99948,17.21768 13.47375,35.94214 1.34124,52.95353 -12.69383,17.79845 -38.86253,31.42625 -71.03623,36.99333 -9.55116,1.65266 -34.77331,2.79403 -43.43656,1.96562 z"
       id="path3256"
       inkscape:connector-curvature="0" />
    <path
       style="fill:#ffffff;stroke:none"
       d="m 189.7698,389.55505 c -9.95166,-0.9516 -27.48713,-4.53785 -36.47401,-7.45944 -36.78544,-11.95876 -59.074925,-35.14312 -57.207091,-59.50385 2.562667,-33.4229 45.434271,-59.59266 101.973121,-62.24661 l 13.42626,-0.63023 -15.89886,8.59548 c -8.74437,4.72751 -17.22407,9.53911 -18.84376,10.69243 -2.74588,1.95524 -4.31676,2.09695 -23.24455,2.09695 l -20.29965,0 0,14.75133 0,14.75133 -4.63356,5.15363 c -5.54519,6.16759 -9.50858,13.6177 -9.50858,17.87361 0,15.39092 31.3946,15.7731 80.49144,0.97987 l 13.3163,-4.01229 36.43371,0 36.43372,0 0,-15.5898 0,-15.5898 6.60545,-3.5075 6.60544,-3.50751 3.95617,5.23992 c 12.99948,17.21768 13.47375,35.94214 1.34124,52.95353 -12.69383,17.79845 -38.86253,31.42625 -71.03623,36.99333 -9.55116,1.65266 -34.77331,2.79403 -43.43656,1.96562 z"
       id="path3258"
       inkscape:connector-curvature="0" />
    <path
       style="fill:#ffffff;stroke:none"
       d="m 189.7698,389.55505 c -9.95166,-0.9516 -27.48713,-4.53785 -36.47401,-7.45944 -36.78544,-11.95876 -59.074925,-35.14312 -57.207091,-59.50385 2.562829,-33.42502 45.488191,-59.62383 101.973121,-62.23767 l 13.42626,-0.62131 -10.6066,5.73295 c -5.83363,3.15312 -14.39952,7.96069 -19.03532,10.6835 l -8.42871,4.95055 -20.10809,0 -20.1081,0 0,14.73676 0,14.73676 -4.57276,5.21376 c -8.85605,10.09745 -11.69253,19.22137 -7.40601,23.82241 8.61087,9.2427 35.2879,7.52391 78.26171,-5.04236 l 13.57601,-3.96985 36.33705,0 36.33703,0 0,-15.56665 0,-15.56665 6.31346,-3.54689 6.31345,-3.54688 3.3061,3.70871 c 1.81835,2.03979 4.96964,7.03231 7.00288,11.09449 7.08849,14.16209 5.52832,29.46319 -4.42759,43.42271 -12.69383,17.79845 -38.86253,31.42625 -71.03623,36.99333 -9.55116,1.65266 -34.77331,2.79403 -43.43656,1.96562 z"
       id="path3260"
       inkscape:connector-curvature="0" />
    <path
       style="fill:#ffffff;stroke:none"
       d="m 189.7698,389.55505 c -18.6301,-1.78146 -39.84913,-7.52865 -54.52647,-14.76854 -45.247476,-22.31921 -52.488758,-62.16766 -16.25821,-89.4682 19.64142,-14.80025 47.08499,-23.46804 79.0767,-24.97562 l 13.42626,-0.6327 -14.14214,7.73935 c -7.77817,4.25665 -16.30816,9.06935 -18.95553,10.6949 l -4.8134,2.95554 -20.18788,0 -20.18787,0 0,14.73676 0,14.73676 -4.57276,5.21376 c -5.32881,6.07577 -9.56938,14.03522 -9.56938,17.96149 0,1.51504 1.1095,4.07318 2.46555,5.68476 7.89729,9.38538 36.63296,7.45593 79.46095,-5.3354 l 11.72091,-3.50065 36.51388,0 36.51388,0 0,-15.56524 0,-15.56525 6.31346,-3.60088 6.31345,-3.60089 3.3061,3.7613 c 1.81835,2.06872 4.96964,7.08491 7.00288,11.14709 7.08849,14.16209 5.52832,29.46319 -4.42759,43.42271 -12.69383,17.79845 -38.86253,31.42625 -71.03623,36.99333 -9.55116,1.65266 -34.77331,2.79403 -43.43656,1.96562 z"
       id="path3262"
       inkscape:connector-curvature="0" />
    <path
       style="fill:#ffffff;stroke:none"
       d="m 189.26472,389.55898 c -10.39953,-1.14338 -27.36814,-4.66804 -35.96893,-7.47135 -59.782197,-19.48512 -75.895416,-65.43427 -34.01319,-96.99347 19.39788,-14.61674 46.82891,-23.23737 78.77922,-24.75761 l 13.42626,-0.63884 -12.70252,7.01342 c -6.98638,3.85738 -15.5339,8.67284 -18.99448,10.70103 l -6.29196,3.68762 -20.14893,0 -20.14893,0 0,14.73864 0,14.73864 -4.42726,5.21187 c -8.23698,9.69676 -11.26362,17.85003 -8.30339,22.36791 6.82665,10.41879 34.43934,9.1798 78.38419,-3.51713 l 13.99117,-4.04245 36.44416,0 36.44416,0 0,-15.59887 0,-15.59887 6.31346,-3.59673 6.31345,-3.59673 3.3061,3.79077 c 1.81835,2.08493 4.96964,7.11438 7.00288,11.17656 7.08849,14.16209 5.52832,29.46319 -4.42759,43.42271 -12.68982,17.79282 -39.83894,31.89024 -71.51118,37.1328 -9.20382,1.52346 -35.9957,2.65149 -43.46669,1.83008 z"
       id="path3264"
       inkscape:connector-curvature="0" />
    <path
       style="fill:#ffffff;stroke:none"
       d="m 185.22411,389.02067 c -29.57227,-3.33495 -57.88982,-15.06242 -73.49239,-30.43626 -24.93707,-24.5715 -19.997839,-55.45603 12.30302,-76.9296 18.92266,-12.57975 44.58245,-19.95085 74.32136,-21.34972 l 13.13198,-0.61771 -16.55907,9.23461 c -9.10748,5.07904 -17.50451,9.89684 -18.66005,10.70621 -1.67215,1.17122 -6.2818,1.47158 -22.58434,1.47158 l -20.48336,0 0,14.66149 0,14.66148 -4.7144,5.788 c -6.12553,7.52051 -9.7964,15.45918 -8.94365,19.34169 1.42124,6.4709 7.9219,9.08225 22.74942,9.13855 15.71107,0.0597 35.08165,-3.57011 61.54479,-11.53262 8.43547,-2.53816 8.84066,-2.56111 45.20432,-2.56111 l 36.69255,0 0,-15.59887 0,-15.59887 6.31346,-3.59673 6.31345,-3.59673 3.3061,3.79077 c 1.81835,2.08493 4.96266,7.10025 6.98736,11.14517 7.29571,14.57529 5.50519,30.19985 -5.06928,44.23595 -20.47232,27.17409 -70.39706,43.05178 -118.36127,37.64272 z"
       id="path3266"
       inkscape:connector-curvature="0" />
    <path
       style="fill:#ffffff;stroke:none"
       d=""
       id="path3268"
       inkscape:connector-curvature="0" />
    <path
       style="fill:#ffffff;stroke:none"
       d=""
       id="path3270"
       inkscape:connector-curvature="0" />
    <path
       style="fill:#ffffff;stroke:none"
       d="m 196.56308,390.24055 c -3.4996,-0.16284 -11.22006,-0.85741 -15.02602,-1.35181 -39.07777,-5.07626 -70.54449,-22.61029 -81.81409,-45.58881 -3.07543,-6.27076 -4.324196,-11.59906 -4.320581,-18.43529 0.0043,-8.12696 2.590186,-16.2427 7.564231,-23.74015 6.68418,-10.07516 17.65777,-19.15302 31.59834,-26.13961 14.38863,-7.21113 31.60464,-12.07734 49.96981,-14.12424 6.83125,-0.76139 12.08193,-1.02416 20.36206,-1.01905 l 7.57615,0.005 -6.43972,3.29545 c -10.0225,5.12888 -19.03411,10.09557 -28.18284,15.53278 l -4.84567,2.87984 -19.85124,0 -19.85124,0 0,14.84254 0,14.84254 -2.03841,2.01438 c -5.15135,5.09063 -10.19182,12.99292 -11.45625,17.96074 -1.696,6.66344 2.3723,11.17298 11.60063,12.85883 3.05674,0.55842 14.7668,0.78668 19.65649,0.38317 12.23277,-1.00949 24.8805,-3.45415 41.10351,-7.94485 5.30886,-1.46955 16.27421,-4.80705 19.13693,-5.82468 0.98024,-0.34845 5.20838,-0.39281 37.43878,-0.39281 l 36.33374,0 0,-15.39247 0,-15.39246 1.57837,-0.8567 c 0.8681,-0.47119 3.94564,-2.13793 6.83898,-3.70388 l 5.26062,-2.84718 0.88939,0.85047 c 1.32356,1.26562 4.96949,5.86112 6.54652,8.25153 8.89662,13.48516 9.99646,28.31103 3.13234,42.22397 -8.02615,16.26825 -26.27764,30.01857 -51.01526,38.43388 -12.00414,4.08361 -24.40325,6.59963 -39.01714,7.91735 -4.10587,0.37022 -18.43834,0.66144 -22.72843,0.46183 l 0,0 z"
       id="path3272"
       inkscape:connector-curvature="0" />
    <path
       style="fill:#ffffff;stroke:none"
       d="m 164.86954,342.17641 c 12.72678,-2.22238 23.76498,-4.98965 38.51207,-9.65496 2.22233,-0.70304 4.32471,-1.40655 4.67195,-1.56335 0.47386,-0.21397 -8.78636,-0.31689 -37.12311,-0.41259 l -37.75445,-0.1275 39.12237,-0.0619 c 21.5173,-0.034 39.07501,-0.0156 39.01714,0.0409 -0.50182,0.49033 -21.55196,6.67915 -28.51576,8.38374 -8.1644,1.99847 -20.77735,4.432 -22.64092,4.36832 -0.39537,-0.0135 1.72445,-0.45121 4.71071,-0.97268 z"
       id="path3274"
       inkscape:connector-curvature="0" />
    <path
       style="fill:#ffffff;stroke:none"
       d=""
       id="path3276"
       inkscape:connector-curvature="0" />
    <path
       style="fill:#ffffff;stroke:none"
       d="m 131.20146,343.86714 c -3.67107,-0.63839 -6.33586,-1.68355 -8.32727,-3.26605 -1.1255,-0.89439 -1.93604,-1.93095 -2.61912,-3.34945 -0.54096,-1.12338 -0.74138,-1.97919 -0.74138,-3.16571 0,-4.18355 4.43959,-12.62845 9.70488,-18.46044 1.64316,-1.82002 3.55194,-3.73432 3.63787,-3.6484 0.0385,0.0385 -0.72019,0.96808 -1.686,2.06569 -2.44012,2.77309 -3.49233,4.04679 -4.67363,5.65746 -3.04351,4.1497 -5.29499,8.41719 -6.10603,11.57346 -1.25003,4.86464 0.93196,8.70715 6.21548,10.94553 1.9285,0.81701 4.85701,1.61753 6.67076,1.82348 0.37371,0.0424 0.35421,0.0513 -0.12627,0.0574 -0.31252,0.004 -1.18969,-0.10086 -1.94929,-0.23295 l 0,0 z"
       id="path3278"
       inkscape:connector-curvature="0" />
    <path
       style="fill:#ffffff;stroke:none"
       d=""
       id="path3280"
       inkscape:connector-curvature="0" />
    <path
       style="fill:#ffffff;stroke:none"
       d=""
       id="path3282"
       inkscape:connector-curvature="0" />
    <path
       style="fill:#ffffff;stroke:none"
       d=""
       id="path3284"
       inkscape:connector-curvature="0" />
    <path
       style="fill:#ffffff;stroke:none"
       d=""
       id="path3286"
       inkscape:connector-curvature="0" />
    <path
       style="fill:#ffffff;stroke:none"
       d=""
       id="path3288"
       inkscape:connector-curvature="0" />
    <path
       style="fill:#ffffff;stroke:none"
       d="m 138.47299,344.54813 c -1.84544,-0.0618 -3.13197,-0.14564 -4.57725,-0.2984 -0.94764,-0.10017 -1.00751,-0.11348 -0.66292,-0.14735 0.20985,-0.0206 0.84346,0.0121 1.42053,0.0733 2.14394,0.22757 3.39271,0.27961 6.6607,0.27756 3.68706,-0.002 6.05452,-0.11583 9.91212,-0.47532 2.79085,-0.26008 6.88069,-0.76939 9.61871,-1.19781 0.88035,-0.13775 1.64743,-0.248 1.70464,-0.245 0.0572,0.003 -0.42508,0.11321 -1.07173,0.2449 -1.44454,0.29418 -1.68527,0.40363 -0.78144,0.35526 2.82592,-0.15123 16.34074,-2.84036 23.39134,-4.65433 3.96203,-1.01934 11.47045,-3.14215 17.85189,-5.04716 1.91981,-0.5731 2.65337,-0.76505 2.00392,-0.52435 -0.51206,0.18978 -6.52042,2.01127 -9.0598,2.74656 -15.48819,4.48469 -29.74234,7.3927 -41.57409,8.4816 -3.86226,0.35546 -5.31531,0.42408 -9.40705,0.4443 -2.11816,0.0105 -4.56147,-0.005 -5.42957,-0.0338 z"
       id="path3290"
       inkscape:connector-curvature="0" />
    <path
       style="fill:#ffffff;stroke:none"
       d="m 138.31515,344.38205 c -1.93853,-0.10224 -4.72367,-0.34401 -4.97184,-0.43159 -0.0625,-0.022 -0.0789,-1.41809 -0.0789,-6.69433 l 0,-6.66648 0.74183,0.0344 c 0.40801,0.0189 11.49522,0.0491 24.63825,0.067 13.14304,0.0179 28.86827,0.0444 34.94497,0.0588 6.89295,0.0163 10.16993,0.006 8.71257,-0.0263 -3.13051,-0.0703 -20.88592,-0.17768 -39.08028,-0.23634 l -14.83662,-0.0478 24.52777,-0.0354 c 26.17446,-0.0378 38.33527,-0.012 38.16931,0.0809 -0.40668,0.22759 -6.88631,2.23481 -12.66296,3.92266 -11.44191,3.34314 -16.44547,4.64041 -24.02269,6.22835 -6.27125,1.31426 -12.86615,2.48633 -13.81647,2.45553 l -0.1994,-0.006 0.22098,-0.0552 c 0.30004,-0.075 3.63204,-0.70562 6.81366,-1.28957 10.94517,-2.00886 20.90855,-4.5153 33.624,-8.45863 3.13105,-0.97101 6.91382,-2.21767 7.00461,-2.30846 0.0381,-0.0381 0.0187,-0.0601 -0.0531,-0.0601 -0.0623,0 -1.83651,0.5523 -3.94275,1.22732 -5.10563,1.6363 -8.39394,2.64644 -11.59507,3.56191 -17.56084,5.02207 -34.58205,8.10551 -47.79284,8.65781 -1.34697,0.0563 -5.42677,0.0705 -6.34503,0.0221 z"
       id="path3292"
       inkscape:connector-curvature="0" />
    <path
       style="fill:#ffffff;stroke:none"
       d="m 147.24869,330.59719 c -7.674,-0.0177 -13.95983,-0.0392 -13.96851,-0.0476 -0.009,-0.008 -0.009,-4.34094 -2.1e-4,-9.62767 l 0.0156,-9.61223 0.0162,9.39126 0.0162,9.39126 39.56936,0.003 39.56937,0.003 -0.59178,0.21768 c -0.58055,0.21354 -0.82537,0.27349 -0.64118,0.157 0.0511,-0.0323 0.0764,-0.0753 0.0562,-0.0954 -0.0487,-0.0487 -68.56966,-0.0281 -73.79548,0.0222 -3.08383,0.0297 -0.34864,0.0529 11.26951,0.0954 8.43793,0.0309 19.70271,0.0756 25.03284,0.0992 l 9.69115,0.043 -11.14324,-0.004 c -6.12879,-0.002 -17.42198,-0.0187 -25.09598,-0.0364 l 0,0 z"
       id="path3294"
       inkscape:connector-curvature="0" />
    <path
       style="fill:#ffffff;stroke:none"
       d="m 130.8274,343.85218 c -1.33429,-0.23124 -2.97357,-0.64344 -3.89515,-0.97945 -2.88058,-1.05028 -4.81171,-2.44268 -6.07326,-4.37903 -1.02002,-1.56562 -1.34616,-2.53974 -1.38702,-4.14282 -0.0177,-0.6924 6.1e-4,-0.94301 0.12147,-1.66703 0.38878,-2.32902 1.65766,-5.45013 3.56134,-8.75991 0.51931,-0.90288 1.33591,-2.20971 1.38079,-2.20971 0.0214,0 -0.12958,0.2686 -0.33548,0.59688 -2.89327,4.61289 -4.70529,9.16667 -4.70529,11.82484 0,1.11643 0.26026,2.14908 0.82649,3.27927 0.82338,1.64349 1.81038,2.75497 3.37191,3.79718 1.69309,1.13003 3.88199,1.95037 6.72382,2.51992 0.37329,0.0748 0.63608,0.13546 0.584,0.13478 -0.0521,-6.9e-4 -0.13022,-0.007 -0.17362,-0.0149 z"
       id="path3296"
       inkscape:connector-curvature="0" />
    <path
       style="fill:#ffffff;stroke:none"
       d="m 133.21508,329.39297 c -0.0109,-0.65542 -0.0289,-4.38316 -0.04,-8.28387 -0.0111,-3.90071 -0.029,-7.57034 -0.0396,-8.15475 l -0.0194,-1.06254 -0.51581,0.58892 c -0.28369,0.3239 -0.52338,0.58134 -0.53263,0.57209 -0.009,-0.009 0.0606,-0.10623 0.15522,-0.2155 0.43598,-0.50344 0.69976,-0.87738 0.61891,-0.87738 -0.17857,0 -2.76763,2.64922 -4.18032,4.27746 -1.22205,1.4085 -2.52628,3.12974 -3.67675,4.85229 -0.24021,0.35967 -0.44363,0.6428 -0.45205,0.62918 -0.0198,-0.032 0.81023,-1.28468 1.41512,-2.13572 1.40542,-1.97733 2.4783,-3.25467 4.6265,-5.5082 0.67234,-0.7053 2.71575,-2.76032 2.7259,-2.74138 0.003,0.006 -0.003,1.0478 -0.0144,2.31522 -0.0111,1.26743 -0.0219,5.58911 -0.0239,9.60374 l -0.004,7.29933 0.70237,0.009 0.70237,0.009 -0.71398,0.007 -0.71398,0.007 -0.0198,-1.19166 z"
       id="path3298"
       inkscape:connector-curvature="0" />
    <path
       style="fill:#ffff00;stroke:none"
       d=""
       id="path3300"
       inkscape:connector-curvature="0" />
    <path
       style="fill:#ffff00;stroke:none"
       d="m 135.72637,296.45126 0,-12.4764 16.79688,7.3e-4 16.79687,7.4e-4 -0.28125,0.18058 c -9.92973,6.37544 -17.13662,11.45048 -24.07924,16.95644 -2.80253,2.22259 -7.13304,5.88356 -8.70201,7.35659 -0.17187,0.16137 -0.36172,0.33037 -0.42187,0.37556 -0.10408,0.0782 -0.10938,-0.52232 -0.10938,-12.39424 z m 2.21354,9.87153 c 0.50411,-0.24839 1.4132,-0.96682 2.9917,-2.36426 1.8022,-1.59549 2.34478,-2.03698 4.63851,-3.77428 3.75262,-2.84229 8.21638,-6.07884 17.14055,-12.42814 2.75397,-1.95938 5.00912,-3.5836 5.01146,-3.60938 0.002,-0.0258 -7.08452,-0.0469 -15.74856,-0.0469 l -15.75281,0 0.025,10.10937 c 0.0218,8.80644 0.0376,10.18188 0.12268,10.67188 0.27509,1.58463 0.62668,1.90719 1.57144,1.44168 z"
       id="path3302"
       inkscape:connector-curvature="0" />
    <path
       style="fill:#ffff00;stroke:none"
       d="m 220.07012,327.55801 c 0.24063,-0.088 1.84375,-0.67439 3.5625,-1.30307 18.51566,-6.77256 38.6395,-15.46234 56.60903,-24.44462 1.19434,-0.597 2.18575,-1.08546 2.20312,-1.08546 0.0174,0 0.0316,6.075 0.0316,13.5 l 0,13.5 -31.42187,-0.003 -31.42188,-0.003 0.4375,-0.16002 0,0 z m 61.65591,-7.47378 c -1.9e-4,-4.13359 -0.0289,-8.55625 -0.0637,-9.82812 -0.14122,-5.15161 -0.46621,-7.81736 -0.9684,-7.9434 -0.38894,-0.0976 -3.51263,1.27784 -9.03002,3.97618 -5.16929,2.5281 -7.75133,3.73853 -12.5,5.85988 -11.55088,5.16004 -22.21884,9.53255 -34.26744,14.04527 -1.81429,0.67953 -3.28148,1.25274 -3.26043,1.27379 0.0331,0.0331 11.39033,0.0594 51.51225,0.11923 l 8.57812,0.0128 -3.7e-4,-7.51563 3e-5,0 z"
       id="path3304"
       inkscape:connector-curvature="0" />
    <flowRoot
       xml:space="preserve"
       id="flowRoot3083"
       style="font-size:20px;font-style:normal;font-weight:normal;line-height:125%;letter-spacing:0px;word-spacing:0px;fill:#000000;fill-opacity:1;stroke:none;font-family:Sans"
       transform="translate(-49.598495,-11.010658)"><flowRegion
         id="flowRegion3085"><rect
           id="rect3087"
           width="173.74625"
           height="119.19799"
           x="186.87822"
           y="298.78839"
           style="font-size:20px" /></flowRegion><flowPara
         id="flowPara3089"
         style="font-size:14px">&quot;100 units of X to B&quot;</flowPara><flowPara
         id="flowPara3091"
         style="font-size:14px">ID: 17265715249</flowPara></flowRoot>    <rect
       style="fill:none;stroke:#000000;stroke-width:1.90347385"
       id="rect3081-7-8"
       width="99.091484"
       height="46.563545"
       x="154.50507"
       y="333.0853" />
    <flowRoot
       xml:space="preserve"
       id="flowRoot3083-7-0"
       style="font-size:20px;font-style:normal;font-weight:normal;line-height:125%;letter-spacing:0px;word-spacing:0px;fill:#000000;fill-opacity:1;stroke:none;font-family:Sans"
       transform="translate(-28.284265,38.24364)"><flowRegion
         id="flowRegion3085-5-2"><rect
           id="rect3087-6-3"
           width="173.74625"
           height="119.19799"
           x="186.87822"
           y="298.78839"
           style="font-size:20px" /></flowRegion><flowPara
         id="flowPara3091-3-4"
         style="font-size:14px">A: 400 coins</flowPara><flowPara
         style="font-size:14px"
         id="flowPara3170-5">C: 730 coins</flowPara></flowRoot>    <path
       sodipodi:type="arc"
       style="fill:none;stroke:#000000;stroke-width:2"
       id="path3077-2-2-9"
       sodipodi:cx="225.26402"
       sodipodi:cy="325.05234"
       sodipodi:rx="89.90358"
       sodipodi:ry="66.670067"
       d="m 315.1676,325.05234 c 0,36.82086 -40.2512,66.67006 -89.90358,66.67006 -49.65237,0 -89.90358,-29.8492 -89.90358,-66.67006 0,-36.82086 40.25121,-66.67007 89.90358,-66.67007 49.65238,0 89.90358,29.84921 89.90358,66.67007 z"
       transform="matrix(-1.2291384,0,0,0.99838355,828.578,1.992694)" />
    <path
       style="fill:none;stroke:#000000;stroke-width:1.04481924px;stroke-linecap:butt;stroke-linejoin:miter;stroke-opacity:1"
       d="M 468.33737,282.05051 400.70196,234.61816"
       id="path3079-5-1-3"
       inkscape:connector-curvature="0" />
    <rect
       style="fill:none;stroke:#000000;stroke-width:1.90347385"
       id="rect3081-7-4-0"
       width="99.091484"
       height="46.563545"
       x="504.85977"
       y="332.04492" />
    <flowRoot
       xml:space="preserve"
       id="flowRoot3083-7-2-2"
       style="font-size:20px;font-style:normal;font-weight:normal;line-height:125%;letter-spacing:0px;word-spacing:0px;fill:#000000;fill-opacity:1;stroke:none;font-family:Sans"
       transform="translate(322.07046,37.203294)"><flowRegion
         id="flowRegion3085-5-22-2"><rect
           id="rect3087-6-30-6"
           width="173.74625"
           height="119.19799"
           x="186.87822"
           y="298.78839"
           style="font-size:20px" /></flowRegion><flowPara
         style="font-size:14px"
         id="flowPara3170-2-5">B: 100 coins</flowPara><flowPara
         style="font-size:14px"
         id="flowPara3308-6">D: 820 coins</flowPara></flowRoot>    <rect
       style="fill:none;stroke:#000000;stroke-width:2.21301222"
       id="rect3081-7-4-3"
       width="127.06622"
       height="49.082436"
       x="493.08124"
       y="502.0939" />
    <flowRoot
       xml:space="preserve"
       id="flowRoot3083-7-2-26"
       style="font-size:20px;font-style:normal;font-weight:normal;line-height:125%;letter-spacing:0px;word-spacing:0px;fill:#000000;fill-opacity:1;stroke:none;font-family:Sans"
       transform="translate(309.32956,205.09749)"><flowRegion
         id="flowRegion3085-5-22-8"><rect
           id="rect3087-6-30-8"
           width="124.95586"
           height="116.36957"
           x="186.87822"
           y="298.78839"
           style="font-size:20px" /></flowRegion><flowPara
         style="font-size:12px"
         id="flowPara3308-9">Receipts consumed:</flowPara><flowPara
         style="font-size:12px"
         id="flowPara3384">30522819204</flowPara><flowPara
         style="font-size:12px"
         id="flowPara3419">17265715249</flowPara></flowRoot>    <rect
       style="fill:none;stroke:#000000;stroke-width:2.01899457"
       id="rect3081-7-4-3-8"
       width="127.26024"
       height="40.791172"
       x="493.57001"
       y="280.3121" />
    <flowRoot
       xml:space="preserve"
       id="flowRoot3083-7-2-26-7"
       style="font-size:20px;font-style:normal;font-weight:normal;line-height:125%;letter-spacing:0px;word-spacing:0px;fill:#000000;fill-opacity:1;stroke:none;font-family:Sans"
       transform="translate(309.91535,-14.587306)"><flowRegion
         id="flowRegion3085-5-22-8-2"><rect
           id="rect3087-6-30-8-2"
           width="124.95586"
           height="116.36957"
           x="186.87822"
           y="298.78839"
           style="font-size:20px" /></flowRegion><flowPara
         style="font-size:12px"
         id="flowPara3308-9-2">Receipts consumed:</flowPara><flowPara
         style="font-size:12px"
         id="flowPara3384-6">30522819204</flowPara></flowRoot>    <path
       style="fill:#cccccc;stroke:none"
       d="m 428.65104,361.60883 c -44.57959,-53.198 -81.53169,-97.39266 -82.11582,-98.21036 -0.90555,-1.26761 -0.17018,-2.29842 4.98995,-6.99469 l 6.052,-5.50799 76.48911,103.28605 c 42.06899,56.80732 76.29772,103.48057 76.0638,103.71835 -0.2339,0.23777 -36.89947,-43.09333 -81.47904,-96.29136 l 0,0 z"
       id="path3429"
       inkscape:connector-curvature="0" />
    <path
       style="fill:none;stroke:#000000;stroke-width:1px;stroke-linecap:butt;stroke-linejoin:miter;stroke-opacity:1"
       d="m 382,283.36219 133,-92"
       id="path3433"
       inkscape:connector-curvature="0" />
    <flowRoot
       xml:space="preserve"
       id="flowRoot3435"
       style="font-size:40px;font-style:normal;font-weight:normal;line-height:125%;letter-spacing:0px;word-spacing:0px;fill:#000000;fill-opacity:1;stroke:none;font-family:Sans"
       transform="translate(-8,-7)"><flowRegion
         id="flowRegion3437"><rect
           id="rect3439"
           width="127"
           height="162"
           x="528"
           y="157.36218" /></flowRegion><flowPara
         id="flowPara3441"
         style="font-size:15px">Send proof of receipt into shard N as transaction</flowPara></flowRoot>    <path
       style="fill:#cccccc;stroke:none"
       d="m 329.53167,524.39838 c 43.21983,-51.91306 79.04485,-95.04024 79.61116,-95.83819 0.87794,-1.23698 0.16498,-2.24291 -4.83775,-6.82574 l -5.86741,-5.37495 -74.15607,100.79128 c -40.78583,55.4352 -73.97053,100.9811 -73.74375,101.21315 0.22676,0.23203 35.77398,-42.05247 78.99382,-93.96555 l 0,0 z"
       id="path3429-7"
       inkscape:connector-curvature="0" />
    <path
       style="fill:none;stroke:#000000;stroke-width:1px;stroke-linecap:butt;stroke-linejoin:miter;stroke-opacity:1"
       d="M 338,496.36218 264,460.36219"
       id="path3711"
       inkscape:connector-curvature="0" />
    <flowRoot
       xml:space="preserve"
       id="flowRoot3435-8"
       style="font-size:40px;font-style:normal;font-weight:normal;line-height:125%;letter-spacing:0px;word-spacing:0px;fill:#000000;fill-opacity:1;stroke:none;font-family:Sans"
       transform="translate(-424.73853,255.50299)"><flowRegion
         id="flowRegion3437-8"><rect
           id="rect3439-0"
           width="178"
           height="173"
           x="528"
           y="157.36218" /></flowRegion><flowPara
         id="flowPara3441-2"
         style="font-size:15px">Send proof of response back into shard M as transaction. Clear receipt and perform any further execution if needed.</flowPara></flowRoot>    <flowRoot
       xml:space="preserve"
       id="flowRoot3435-6"
       style="font-size:40px;font-style:normal;font-weight:normal;line-height:125%;letter-spacing:0px;word-spacing:0px;fill:#000000;fill-opacity:1;stroke:none;font-family:Sans"
       transform="translate(-364.73853,-150.49701)"><flowRegion
         id="flowRegion3437-3"><rect
           id="rect3439-4"
           width="127"
           height="162"
           x="528"
           y="157.36218" /></flowRegion><flowPara
         id="flowPara3441-7"
         style="font-size:20px">Shard M</flowPara></flowRoot>    <flowRoot
       xml:space="preserve"
       id="flowRoot3435-6-8"
       style="font-size:40px;font-style:normal;font-weight:normal;line-height:125%;letter-spacing:0px;word-spacing:0px;fill:#000000;fill-opacity:1;stroke:none;font-family:Sans"
       transform="translate(-10.615237,-152.49174)"><flowRegion
         id="flowRegion3437-3-0"><rect
           id="rect3439-4-0"
           width="127"
           height="162"
           x="528"
           y="157.36218" /></flowRegion><flowPara
         id="flowPara3441-7-9"
         style="font-size:20px">Shard N</flowPara></flowRoot>  </g>
</svg>
