<?xml version="1.0" encoding="UTF-8" standalone="no"?>
<!-- Created with Inkscape (http://www.inkscape.org/) -->

<svg
   xmlns:dc="http://purl.org/dc/elements/1.1/"
   xmlns:cc="http://creativecommons.org/ns#"
   xmlns:rdf="http://www.w3.org/1999/02/22-rdf-syntax-ns#"
   xmlns:svg="http://www.w3.org/2000/svg"
   xmlns="http://www.w3.org/2000/svg"
   xmlns:sodipodi="http://sodipodi.sourceforge.net/DTD/sodipodi-0.dtd"
   xmlns:inkscape="http://www.inkscape.org/namespaces/inkscape"
   width="662.04865"
   height="315.67856"
   id="svg2"
   version="1.1"
   inkscape:version="0.48.4 r9939"
   sodipodi:docname="New document 1">
  <defs
     id="defs4" />
  <sodipodi:namedview
     id="base"
     pagecolor="#ffffff"
     bordercolor="#666666"
     borderopacity="1.0"
     inkscape:pageopacity="0.0"
     inkscape:pageshadow="2"
     inkscape:zoom="1.4142136"
     inkscape:cx="318.47489"
     inkscape:cy="138.25"
     inkscape:document-units="px"
     inkscape:current-layer="layer1"
     showgrid="false"
     fit-margin-top="0"
     fit-margin-left="0"
     fit-margin-right="0"
     fit-margin-bottom="0"
     inkscape:window-width="1301"
     inkscape:window-height="744"
     inkscape:window-x="65"
     inkscape:window-y="24"
     inkscape:window-maximized="1" />
  <metadata
     id="metadata7">
    <rdf:RDF>
      <cc:Work
         rdf:about="">
        <dc:format>image/svg+xml</dc:format>
        <dc:type
           rdf:resource="http://purl.org/dc/dcmitype/StillImage" />
        <dc:title></dc:title>
      </cc:Work>
    </rdf:RDF>
  </metadata>
  <g
     inkscape:label="Layer 1"
     inkscape:groupmode="layer"
     id="layer1"
     transform="translate(-17.214288,-297.79075)">
    <path
       sodipodi:type="arc"
       style="fill:none;stroke:#000000;stroke-width:2"
       id="path2985"
       sodipodi:cx="310"
       sodipodi:cy="524.50507"
       sodipodi:rx="88.571426"
       sodipodi:ry="80.714287"
       d="m 398.57143,524.50507 c 0,44.57727 -39.65478,80.71428 -88.57143,80.71428 -48.91665,0 -88.57143,-36.13701 -88.57143,-80.71428 0,-44.57727 39.65478,-80.71429 88.57143,-80.71429 48.91665,0 88.57143,36.13702 88.57143,80.71429 z"
       transform="matrix(0.43763797,0,0,0.46696559,123.97509,236.00782)" />
    <path
       sodipodi:type="arc"
       style="fill:none;stroke:#000000;stroke-width:2"
       id="path2985-7"
       sodipodi:cx="310"
       sodipodi:cy="524.50507"
       sodipodi:rx="88.571426"
       sodipodi:ry="80.714287"
       d="m 398.57143,524.50507 c 0,44.57727 -39.65478,80.71428 -88.57143,80.71428 -48.91665,0 -88.57143,-36.13701 -88.57143,-80.71428 0,-44.57727 39.65478,-80.71429 88.57143,-80.71429 48.91665,0 88.57143,36.13702 88.57143,80.71429 z"
       transform="matrix(0.43763797,0,0,0.46696559,302.90366,142.43637)" />
    <path
       style="fill:none;stroke:#000000;stroke-width:1px;stroke-linecap:butt;stroke-linejoin:miter;stroke-opacity:1"
       d="M 292.14286,460.93361 403.57143,403.79075"
       id="path3005"
       inkscape:connector-curvature="0"
       sodipodi:nodetypes="cc" />
    <path
       style="fill:none;stroke:#000000;stroke-width:1px;stroke-linecap:butt;stroke-linejoin:miter;stroke-opacity:1"
       d="M 95.958693,481.16508 221.18416,480.70214"
       id="path3005-9"
       inkscape:connector-curvature="0"
       sodipodi:nodetypes="cc" />
    <path
       sodipodi:type="arc"
       style="fill:none;stroke:#000000;stroke-width:2"
       id="path2985-5"
       sodipodi:cx="310"
       sodipodi:cy="524.50507"
       sodipodi:rx="88.571426"
       sodipodi:ry="80.714287"
       d="m 398.57143,524.50507 c 0,44.57727 -39.65478,80.71428 -88.57143,80.71428 -48.91665,0 -88.57143,-36.13701 -88.57143,-80.71428 0,-44.57727 39.65478,-80.71429 88.57143,-80.71429 48.91665,0 88.57143,36.13702 88.57143,80.71429 z"
       transform="matrix(0.43763797,0,0,0.46696559,-79.239199,237.43637)" />
    <path
       sodipodi:type="arc"
       style="fill:none;stroke:#000000;stroke-width:2;stroke-miterlimit:4;stroke-dasharray:7.99999988, 7.99999988;stroke-dashoffset:0"
       id="path2985-7-0"
       sodipodi:cx="310"
       sodipodi:cy="524.50507"
       sodipodi:rx="88.571426"
       sodipodi:ry="80.714287"
       d="m 398.57143,524.50507 c 0,44.57727 -39.65478,80.71428 -88.57143,80.71428 -48.91665,0 -88.57143,-36.13701 -88.57143,-80.71428 0,-44.57727 39.65478,-80.71429 88.57143,-80.71429 48.91665,0 88.57143,36.13702 88.57143,80.71429 z"
       transform="matrix(0.43763797,0,0,-0.46696559,303.90366,820.25228)" />
    <path
       style="fill:none;stroke:#000000;stroke-width:1;stroke-linecap:butt;stroke-linejoin:miter;stroke-miterlimit:4;stroke-opacity:1;stroke-dasharray:6, 6;stroke-dashoffset:10"
       d="M 293.14286,501.75504 404.57143,558.8979"
       id="path3005-7"
       inkscape:connector-curvature="0"
       sodipodi:nodetypes="cc" />
    <rect
       style="fill:none;stroke:#000000;stroke-width:2.3410399"
       id="rect3064"
       width="119.32156"
       height="44.658958"
       x="292.65079"
       y="298.96127" />
    <flowRoot
       xml:space="preserve"
       id="flowRoot3066"
       style="font-size:40px;font-style:normal;font-weight:normal;line-height:125%;letter-spacing:0px;word-spacing:0px;fill:#000000;fill-opacity:1;stroke:none;font-family:Sans"
       transform="translate(-131.7645,-2.9497475)"><flowRegion
         id="flowRegion3068"><rect
           id="rect3070"
           width="198.69701"
           height="79.903069"
           x="432.04224"
           y="307.77875" /></flowRegion><flowPara
         id="flowPara3072"
         style="font-size:25px">200 BTC</flowPara></flowRoot>    <path
       style="fill:none;stroke:#000000;stroke-width:1.09280264px;stroke-linecap:butt;stroke-linejoin:miter;stroke-opacity:1"
       d="m 420.68214,354.98718 -9.09959,-11.22091"
       id="path3074"
       inkscape:connector-curvature="0" />
    <path
       sodipodi:type="arc"
       style="fill:none;stroke:#000000;stroke-width:2;stroke-miterlimit:4;stroke-dasharray:7.99999988, 7.99999988;stroke-dashoffset:0"
       id="path2985-7-0-9"
       sodipodi:cx="310"
       sodipodi:cy="524.50507"
       sodipodi:rx="88.571426"
       sodipodi:ry="80.714287"
       d="m 398.57143,524.50507 c 0,44.57727 -39.65478,80.71428 -88.57143,80.71428 -48.91665,0 -88.57143,-36.13701 -88.57143,-80.71428 0,-44.57727 39.65478,-80.71429 88.57143,-80.71429 48.91665,0 88.57143,36.13702 88.57143,80.71429 z"
       transform="matrix(0.43763797,0,0,-0.46696559,504.38089,632.18713)" />
    <path
       style="fill:none;stroke:#000000;stroke-width:1;stroke-linecap:butt;stroke-linejoin:miter;stroke-miterlimit:4;stroke-opacity:1;stroke-dasharray:4, 4;stroke-dashoffset:0"
       d="m 476.90974,388.62039 125.22547,-0.46294"
       id="path3005-9-3"
       inkscape:connector-curvature="0"
       sodipodi:nodetypes="cc" />
    <path
       style="fill:none;stroke:#000000;stroke-width:0.96042985;stroke-linecap:butt;stroke-linejoin:miter;stroke-miterlimit:4;stroke-opacity:1;stroke-dasharray:3.84171939, 3.84171939;stroke-dashoffset:0"
       d="M 418.59733,543.58897 376.19068,476.4336"
       id="path3074-5"
       inkscape:connector-curvature="0" />
    <path
       style="fill:none;stroke:#000000;stroke-width:1.01439011;stroke-linecap:butt;stroke-linejoin:miter;stroke-miterlimit:4;stroke-opacity:1;stroke-dasharray:4.05756044, 4.05756044;stroke-dashoffset:0"
       d="m 376.66364,344.16816 0.44854,132.98925"
       id="path3005-9-5"
       inkscape:connector-curvature="0"
       sodipodi:nodetypes="cc" />
  </g>
</svg>
