<?xml version="1.0" encoding="UTF-8" standalone="no"?>
<!-- Created with Inkscape (http://www.inkscape.org/) -->

<svg
   xmlns:dc="http://purl.org/dc/elements/1.1/"
   xmlns:cc="http://creativecommons.org/ns#"
   xmlns:rdf="http://www.w3.org/1999/02/22-rdf-syntax-ns#"
   xmlns:svg="http://www.w3.org/2000/svg"
   xmlns="http://www.w3.org/2000/svg"
   xmlns:sodipodi="http://sodipodi.sourceforge.net/DTD/sodipodi-0.dtd"
   xmlns:inkscape="http://www.inkscape.org/namespaces/inkscape"
   width="1994.2856"
   height="734.4071"
   id="svg2"
   version="1.1"
   inkscape:version="0.48.4 r9939"
   sodipodi:docname="New document 1">
  <defs
     id="defs4" />
  <sodipodi:namedview
     id="base"
     pagecolor="#ffffff"
     bordercolor="#666666"
     borderopacity="1.0"
     inkscape:pageopacity="0.0"
     inkscape:pageshadow="2"
     inkscape:zoom="0.35"
     inkscape:cx="1012.1516"
     inkscape:cy="117.21429"
     inkscape:document-units="px"
     inkscape:current-layer="layer1"
     showgrid="false"
     fit-margin-top="0"
     fit-margin-left="0"
     fit-margin-right="0"
     fit-margin-bottom="0"
     inkscape:window-width="1301"
     inkscape:window-height="744"
     inkscape:window-x="65"
     inkscape:window-y="24"
     inkscape:window-maximized="1" />
  <metadata
     id="metadata7">
    <rdf:RDF>
      <cc:Work
         rdf:about="">
        <dc:format>image/svg+xml</dc:format>
        <dc:type
           rdf:resource="http://purl.org/dc/dcmitype/StillImage" />
        <dc:title></dc:title>
      </cc:Work>
    </rdf:RDF>
  </metadata>
  <g
     inkscape:label="Layer 1"
     inkscape:groupmode="layer"
     id="layer1"
     transform="translate(-107.07143,84.830618)">
    <path
       sodipodi:type="arc"
       style="fill:none;stroke:#000000;stroke-width:3;stroke-linecap:butt;stroke-linejoin:miter;stroke-opacity:1"
       id="path2985"
       sodipodi:cx="158.57143"
       sodipodi:cy="336.64789"
       sodipodi:rx="50"
       sodipodi:ry="50"
       d="m 208.57143,336.64789 c 0,27.61424 -22.38577,50 -50,50 -27.61424,0 -50,-22.38576 -50,-50 0,-27.61424 22.38576,-50 50,-50 27.61423,0 50,22.38576 50,50 z"
       transform="translate(0,-6)" />
    <path
       transform="translate(372.85714,92.857151)"
       sodipodi:type="arc"
       style="fill:none;stroke:#000000;stroke-width:3;stroke-linecap:butt;stroke-linejoin:miter;stroke-opacity:1"
       id="path2985-4"
       sodipodi:cx="158.57143"
       sodipodi:cy="336.64789"
       sodipodi:rx="50"
       sodipodi:ry="50"
       d="m 208.57143,336.64789 c 0,27.61424 -22.38577,50 -50,50 -27.61424,0 -50,-22.38576 -50,-50 0,-27.61424 22.38576,-50 50,-50 27.61423,0 50,22.38576 50,50 z" />
    <path
       transform="translate(298.57143,-147.14285)"
       sodipodi:type="arc"
       style="fill:none;stroke:#000000;stroke-width:3;stroke-linecap:butt;stroke-linejoin:miter;stroke-opacity:1"
       id="path2985-7"
       sodipodi:cx="158.57143"
       sodipodi:cy="336.64789"
       sodipodi:rx="50"
       sodipodi:ry="50"
       d="m 208.57143,336.64789 c 0,27.61424 -22.38577,50 -50,50 -27.61424,0 -50,-22.38576 -50,-50 0,-27.61424 22.38576,-50 50,-50 27.61423,0 50,22.38576 50,50 z" />
    <path
       transform="translate(64.285716,261.42858)"
       sodipodi:type="arc"
       style="fill:none;stroke:#000000;stroke-width:3;stroke-linecap:butt;stroke-linejoin:miter;stroke-opacity:1"
       id="path2985-5"
       sodipodi:cx="158.57143"
       sodipodi:cy="336.64789"
       sodipodi:rx="50"
       sodipodi:ry="50"
       d="m 208.57143,336.64789 c 0,27.61424 -22.38577,50 -50,50 -27.61424,0 -50,-22.38576 -50,-50 0,-27.61424 22.38576,-50 50,-50 27.61423,0 50,22.38576 50,50 z" />
    <path
       transform="translate(747.14286,-24.285703)"
       sodipodi:type="arc"
       style="fill:none;stroke:#000000;stroke-width:3;stroke-linecap:butt;stroke-linejoin:miter;stroke-opacity:1"
       id="path2985-9"
       sodipodi:cx="158.57143"
       sodipodi:cy="336.64789"
       sodipodi:rx="50"
       sodipodi:ry="50"
       d="m 208.57143,336.64789 c 0,27.61424 -22.38577,50 -50,50 -27.61424,0 -50,-22.38576 -50,-50 0,-27.61424 22.38576,-50 50,-50 27.61423,0 50,22.38576 50,50 z" />
    <path
       transform="translate(750.00006,255.7143)"
       sodipodi:type="arc"
       style="fill:none;stroke:#000000;stroke-width:3;stroke-linecap:butt;stroke-linejoin:miter;stroke-opacity:1"
       id="path2985-6"
       sodipodi:cx="158.57143"
       sodipodi:cy="336.64789"
       sodipodi:rx="50"
       sodipodi:ry="50"
       d="m 208.57143,336.64789 c 0,27.61424 -22.38577,50 -50,50 -27.61424,0 -50,-22.38576 -50,-50 0,-27.61424 22.38576,-50 50,-50 27.61423,0 50,22.38576 50,50 z" />
    <path
       transform="translate(701.42857,-235.71428)"
       sodipodi:type="arc"
       style="fill:none;stroke:#000000;stroke-width:3;stroke-linecap:butt;stroke-linejoin:miter;stroke-opacity:1"
       id="path2985-76"
       sodipodi:cx="158.57143"
       sodipodi:cy="336.64789"
       sodipodi:rx="50"
       sodipodi:ry="50"
       d="m 208.57143,336.64789 c 0,27.61424 -22.38577,50 -50,50 -27.61424,0 -50,-22.38576 -50,-50 0,-27.61424 22.38576,-50 50,-50 27.61423,0 50,22.38576 50,50 z" />
    <path
       style="fill:none;stroke:#000000;stroke-width:3;stroke-linecap:butt;stroke-linejoin:miter;stroke-opacity:1"
       d="M 202.85714,306.6479 414.28571,212.36218"
       id="path3040"
       inkscape:connector-curvature="0" />
    <path
       style="fill:none;stroke:#000000;stroke-width:3;stroke-linecap:butt;stroke-linejoin:miter;stroke-opacity:1"
       d="M 505.71429,172.36218 811.42857,106.6479"
       id="path3042"
       inkscape:connector-curvature="0" />
    <path
       style="fill:none;stroke:#008000;stroke-width:16;stroke-linecap:butt;stroke-linejoin:miter;stroke-opacity:1"
       d="M 854.28571,569.50504 580,452.36218"
       id="path3044"
       inkscape:connector-curvature="0" />
    <path
       style="fill:none;stroke:#000000;stroke-width:3;stroke-linecap:butt;stroke-linejoin:miter;stroke-opacity:1"
       d="m 568.57143,395.21933 260,-257.14286"
       id="path3046"
       inkscape:connector-curvature="0" />
    <path
       style="fill:none;stroke:#000000;stroke-width:3;stroke-linecap:butt;stroke-linejoin:miter;stroke-opacity:1"
       d="M 271.42857,572.36218 485.71429,449.50504"
       id="path3048"
       inkscape:connector-curvature="0" />
    <path
       style="fill:none;stroke:#008000;stroke-width:16;stroke-linecap:butt;stroke-linejoin:miter;stroke-opacity:1"
       d="m 202.98906,352.4941 276.87903,59.73617"
       id="path3050"
       inkscape:connector-curvature="0" />
    <path
       style="fill:none;stroke:#000000;stroke-width:3;stroke-linecap:butt;stroke-linejoin:miter;stroke-opacity:1"
       d="M 519.9629,378.03937 474.32281,238.11357"
       id="path3052"
       inkscape:connector-curvature="0" />
    <path
       style="fill:none;stroke:#000000;stroke-width:3;stroke-linecap:butt;stroke-linejoin:miter;stroke-opacity:1"
       d="M 860,318.07647 582.85714,415.21933"
       id="path3054"
       inkscape:connector-curvature="0" />
    <path
       style="fill:none;stroke:#000000;stroke-width:3;stroke-linecap:butt;stroke-linejoin:miter;stroke-opacity:1"
       d="M 271.42857,615.21933 860,609.50504"
       id="path3056"
       inkscape:connector-curvature="0" />
    <path
       style="fill:none;stroke:#000000;stroke-width:3;stroke-linecap:butt;stroke-linejoin:miter;stroke-opacity:1"
       d="m 900,543.79075 -402.85714,-320"
       id="path3058"
       inkscape:connector-curvature="0" />
    <path
       style="fill:none;stroke:#000000;stroke-width:3;stroke-linecap:butt;stroke-linejoin:miter;stroke-opacity:1"
       d="M 897.26282,266.76786 871.30861,149.38508"
       id="path3060"
       inkscape:connector-curvature="0" />
    <path
       style="fill:none;stroke:#000000;stroke-width:3;stroke-linecap:butt;stroke-linejoin:miter;stroke-opacity:1"
       d="M 209.43699,550.51346 170.56301,382.78233"
       id="path3062"
       inkscape:connector-curvature="0" />
    <path
       sodipodi:type="arc"
       style="fill:none;stroke:#000000;stroke-width:3;stroke-linecap:butt;stroke-linejoin:miter;stroke-opacity:1"
       id="path2985-90"
       sodipodi:cx="158.57143"
       sodipodi:cy="336.64789"
       sodipodi:rx="50"
       sodipodi:ry="50"
       d="m 208.57143,336.64789 c 0,27.61424 -22.38577,50 -50,50 -27.61424,0 -50,-22.38576 -50,-50 0,-27.61424 22.38576,-50 50,-50 27.61423,0 50,22.38576 50,50 z"
       transform="translate(1141.2857,-17.428568)" />
    <path
       transform="translate(1514.1428,81.42858)"
       sodipodi:type="arc"
       style="fill:none;stroke:#000000;stroke-width:3;stroke-linecap:butt;stroke-linejoin:miter;stroke-opacity:1"
       id="path2985-4-5"
       sodipodi:cx="158.57143"
       sodipodi:cy="336.64789"
       sodipodi:rx="50"
       sodipodi:ry="50"
       d="m 208.57143,336.64789 c 0,27.61424 -22.38577,50 -50,50 -27.61424,0 -50,-22.38576 -50,-50 0,-27.61424 22.38576,-50 50,-50 27.61423,0 50,22.38576 50,50 z" />
    <path
       transform="translate(1439.8571,-158.57142)"
       sodipodi:type="arc"
       style="fill:none;stroke:#000000;stroke-width:3;stroke-linecap:butt;stroke-linejoin:miter;stroke-opacity:1"
       id="path2985-7-5"
       sodipodi:cx="158.57143"
       sodipodi:cy="336.64789"
       sodipodi:rx="50"
       sodipodi:ry="50"
       d="m 208.57143,336.64789 c 0,27.61424 -22.38577,50 -50,50 -27.61424,0 -50,-22.38576 -50,-50 0,-27.61424 22.38576,-50 50,-50 27.61423,0 50,22.38576 50,50 z" />
    <path
       transform="translate(1205.5714,250.00001)"
       sodipodi:type="arc"
       style="fill:none;stroke:#000000;stroke-width:3;stroke-linecap:butt;stroke-linejoin:miter;stroke-opacity:1"
       id="path2985-5-7"
       sodipodi:cx="158.57143"
       sodipodi:cy="336.64789"
       sodipodi:rx="50"
       sodipodi:ry="50"
       d="m 208.57143,336.64789 c 0,27.61424 -22.38577,50 -50,50 -27.61424,0 -50,-22.38576 -50,-50 0,-27.61424 22.38576,-50 50,-50 27.61423,0 50,22.38576 50,50 z" />
    <path
       transform="translate(1888.4285,-35.714271)"
       sodipodi:type="arc"
       style="fill:none;stroke:#000000;stroke-width:3;stroke-linecap:butt;stroke-linejoin:miter;stroke-opacity:1"
       id="path2985-9-5"
       sodipodi:cx="158.57143"
       sodipodi:cy="336.64789"
       sodipodi:rx="50"
       sodipodi:ry="50"
       d="m 208.57143,336.64789 c 0,27.61424 -22.38577,50 -50,50 -27.61424,0 -50,-22.38576 -50,-50 0,-27.61424 22.38576,-50 50,-50 27.61423,0 50,22.38576 50,50 z" />
    <path
       transform="translate(1891.2857,244.28573)"
       sodipodi:type="arc"
       style="fill:none;stroke:#000000;stroke-width:3;stroke-linecap:butt;stroke-linejoin:miter;stroke-opacity:1"
       id="path2985-6-6"
       sodipodi:cx="158.57143"
       sodipodi:cy="336.64789"
       sodipodi:rx="50"
       sodipodi:ry="50"
       d="m 208.57143,336.64789 c 0,27.61424 -22.38577,50 -50,50 -27.61424,0 -50,-22.38576 -50,-50 0,-27.61424 22.38576,-50 50,-50 27.61423,0 50,22.38576 50,50 z" />
    <path
       transform="translate(1842.7143,-247.14285)"
       sodipodi:type="arc"
       style="fill:none;stroke:#000000;stroke-width:3;stroke-linecap:butt;stroke-linejoin:miter;stroke-opacity:1"
       id="path2985-76-6"
       sodipodi:cx="158.57143"
       sodipodi:cy="336.64789"
       sodipodi:rx="50"
       sodipodi:ry="50"
       d="m 208.57143,336.64789 c 0,27.61424 -22.38577,50 -50,50 -27.61424,0 -50,-22.38576 -50,-50 0,-27.61424 22.38576,-50 50,-50 27.61423,0 50,22.38576 50,50 z" />
    <path
       style="fill:none;stroke:#008000;stroke-width:10;stroke-linecap:butt;stroke-linejoin:miter;stroke-opacity:1"
       d="m 1344.1428,295.21933 211.4286,-94.28572"
       id="path3040-7"
       inkscape:connector-curvature="0" />
    <path
       style="fill:none;stroke:#000000;stroke-width:3;stroke-linecap:butt;stroke-linejoin:miter;stroke-opacity:1"
       d="M 1647,160.93361 1952.7143,95.21933"
       id="path3042-3"
       inkscape:connector-curvature="0" />
    <path
       style="fill:none;stroke:#008000;stroke-width:10;stroke-linecap:butt;stroke-linejoin:miter;stroke-opacity:1"
       d="M 1995.5714,558.07647 1721.2857,440.93361"
       id="path3044-0"
       inkscape:connector-curvature="0" />
    <path
       style="fill:none;stroke:#000000;stroke-width:3;stroke-linecap:butt;stroke-linejoin:miter;stroke-opacity:1"
       d="m 1709.8571,383.79076 260,-257.14286"
       id="path3046-7"
       inkscape:connector-curvature="0" />
    <path
       style="fill:none;stroke:#008000;stroke-width:10;stroke-linecap:butt;stroke-linejoin:miter;stroke-opacity:1"
       d="M 1412.7143,560.93361 1627,438.07647"
       id="path3048-2"
       inkscape:connector-curvature="0" />
    <path
       style="fill:none;stroke:#008000;stroke-width:10;stroke-linecap:butt;stroke-linejoin:miter;stroke-opacity:1"
       d="m 1350.0622,338.2815 276.7327,65.30423"
       id="path3050-1"
       inkscape:connector-curvature="0" />
    <path
       style="fill:none;stroke:#008000;stroke-width:10;stroke-linecap:butt;stroke-linejoin:miter;stroke-opacity:1"
       d="M 1658.2131,375.00381 1615.7869,226.86342"
       id="path3052-0"
       inkscape:connector-curvature="0" />
    <path
       style="fill:none;stroke:#000000;stroke-width:3;stroke-linecap:butt;stroke-linejoin:miter;stroke-opacity:1"
       d="m 2001.2857,306.6479 -277.1429,97.14286"
       id="path3054-9"
       inkscape:connector-curvature="0" />
    <path
       style="fill:none;stroke:#008000;stroke-width:10;stroke-linecap:butt;stroke-linejoin:miter;stroke-opacity:1"
       d="m 1412.7143,603.79076 588.5714,-5.71429"
       id="path3056-2"
       inkscape:connector-curvature="0" />
    <path
       style="fill:none;stroke:#008000;stroke-width:10;stroke-linecap:butt;stroke-linejoin:miter;stroke-opacity:1"
       d="m 2041.2857,532.36218 -402.8572,-320"
       id="path3058-0"
       inkscape:connector-curvature="0" />
    <path
       style="fill:none;stroke:#000000;stroke-width:3;stroke-linecap:butt;stroke-linejoin:miter;stroke-opacity:1"
       d="M 2038.5485,255.33929 2012.5943,137.95651"
       id="path3060-8"
       inkscape:connector-curvature="0" />
    <path
       style="fill:none;stroke:#008000;stroke-width:10;stroke-linecap:butt;stroke-linejoin:miter;stroke-opacity:1"
       d="M 1351.6837,535.61732 1308.0306,366.2499"
       id="path3062-6"
       inkscape:connector-curvature="0" />
    <flowRoot
       xml:space="preserve"
       id="flowRoot3904"
       style="font-size:40px;font-style:normal;font-weight:normal;line-height:125%;letter-spacing:0px;word-spacing:0px;fill:#000000;fill-opacity:1;stroke:none;font-family:Sans"><flowRegion
         id="flowRegion3906"><rect
           id="rect3908"
           width="574.28571"
           height="111.42857"
           x="268.57144"
           y="-90.494957" /></flowRegion><flowPara
         id="flowPara3910">Centralized web of trust</flowPara></flowRoot>    <flowRoot
       transform="translate(1154.0605,-3.8099597)"
       xml:space="preserve"
       id="flowRoot3904-5"
       style="font-size:40px;font-style:normal;font-weight:normal;line-height:125%;letter-spacing:0px;word-spacing:0px;fill:#000000;fill-opacity:1;stroke:none;font-family:Sans"><flowRegion
         id="flowRegion3906-3"><rect
           id="rect3908-3"
           width="574.28571"
           height="111.42857"
           x="268.57144"
           y="-90.494957" /></flowRegion><flowPara
         id="flowPara3910-3">Decentralized web of trust</flowPara></flowRoot>  </g>
</svg>
