<?xml version="1.0" encoding="UTF-8" standalone="no"?>
<!-- Created with Inkscape (http://www.inkscape.org/) -->

<svg
   xmlns:dc="http://purl.org/dc/elements/1.1/"
   xmlns:cc="http://creativecommons.org/ns#"
   xmlns:rdf="http://www.w3.org/1999/02/22-rdf-syntax-ns#"
   xmlns:svg="http://www.w3.org/2000/svg"
   xmlns="http://www.w3.org/2000/svg"
   xmlns:sodipodi="http://sodipodi.sourceforge.net/DTD/sodipodi-0.dtd"
   xmlns:inkscape="http://www.inkscape.org/namespaces/inkscape"
   width="504.56104"
   height="333.34018"
   id="svg2"
   version="1.1"
   inkscape:version="0.48.4 r9939"
   sodipodi:docname="drawing-3.svg"
   inkscape:export-filename="/home/vub/drawing-2.png"
   inkscape:export-xdpi="90"
   inkscape:export-ydpi="90">
  <defs
     id="defs4" />
  <sodipodi:namedview
     id="base"
     pagecolor="#ffffff"
     bordercolor="#666666"
     borderopacity="1.0"
     inkscape:pageopacity="0.0"
     inkscape:pageshadow="2"
     inkscape:zoom="0.98994949"
     inkscape:cx="68.066997"
     inkscape:cy="200.62827"
     inkscape:document-units="px"
     inkscape:current-layer="layer1"
     showgrid="false"
     fit-margin-top="0"
     fit-margin-left="0"
     fit-margin-right="0"
     fit-margin-bottom="0"
     inkscape:window-width="1366"
     inkscape:window-height="708"
     inkscape:window-x="0"
     inkscape:window-y="31"
     inkscape:window-maximized="1" />
  <metadata
     id="metadata7">
    <rdf:RDF>
      <cc:Work
         rdf:about="">
        <dc:format>image/svg+xml</dc:format>
        <dc:type
           rdf:resource="http://purl.org/dc/dcmitype/StillImage" />
        <dc:title />
      </cc:Work>
    </rdf:RDF>
  </metadata>
  <g
     inkscape:label="Layer 1"
     inkscape:groupmode="layer"
     id="layer1"
     transform="translate(-136.88075,-405.36455)">
    <path
       sodipodi:type="arc"
       style="fill:none;stroke:#000000;stroke-width:3"
       id="path2985"
       sodipodi:cx="162.12949"
       sodipodi:cy="431.11838"
       sodipodi:rx="24.748737"
       sodipodi:ry="25.253813"
       d="m 186.87822,431.11838 c 0,13.94729 -11.08038,25.25381 -24.74873,25.25381 -13.66835,0 -24.74874,-11.30652 -24.74874,-25.25381 0,-13.9473 11.08039,-25.25382 24.74874,-25.25382 13.66835,0 24.74873,11.30652 24.74873,25.25382 z" />
    <path
       transform="translate(214.65742,-1.0546483e-5)"
       sodipodi:type="arc"
       style="fill:none;stroke:#000000;stroke-width:3"
       id="path2985-3"
       sodipodi:cx="162.12949"
       sodipodi:cy="431.11838"
       sodipodi:rx="24.748737"
       sodipodi:ry="25.253813"
       d="m 186.87822,431.11838 c 0,13.94729 -11.08038,25.25381 -24.74873,25.25381 -13.66835,0 -24.74874,-11.30652 -24.74874,-25.25381 0,-13.9473 11.08039,-25.25382 24.74874,-25.25382 13.66835,0 24.74873,11.30652 24.74873,25.25382 z" />
    <path
       transform="translate(111.62185,150.51272)"
       sodipodi:type="arc"
       style="fill:none;stroke:#000000;stroke-width:3"
       id="path2985-6"
       sodipodi:cx="162.12949"
       sodipodi:cy="431.11838"
       sodipodi:rx="24.748737"
       sodipodi:ry="25.253813"
       d="m 186.87822,431.11838 c 0,13.94729 -11.08038,25.25381 -24.74873,25.25381 -13.66835,0 -24.74874,-11.30652 -24.74874,-25.25381 0,-13.9473 11.08039,-25.25382 24.74874,-25.25382 13.66835,0 24.74873,11.30652 24.74873,25.25382 z" />
    <path
       transform="translate(301.53053,108.08631)"
       sodipodi:type="arc"
       style="fill:none;stroke:#000000;stroke-width:3"
       id="path2985-7"
       sodipodi:cx="162.12949"
       sodipodi:cy="431.11838"
       sodipodi:rx="24.748737"
       sodipodi:ry="25.253813"
       d="m 186.87822,431.11838 c 0,13.94729 -11.08038,25.25381 -24.74873,25.25381 -13.66835,0 -24.74874,-11.30652 -24.74874,-25.25381 0,-13.9473 11.08039,-25.25382 24.74874,-25.25382 13.66835,0 24.74873,11.30652 24.74873,25.25382 z" />
    <path
       transform="translate(454.06357,39.395939)"
       sodipodi:type="arc"
       style="fill:none;stroke:#000000;stroke-width:3"
       id="path2985-5"
       sodipodi:cx="162.12949"
       sodipodi:cy="431.11838"
       sodipodi:rx="24.748737"
       sodipodi:ry="25.253813"
       d="m 186.87822,431.11838 c 0,13.94729 -11.08038,25.25381 -24.74873,25.25381 -13.66835,0 -24.74874,-11.30652 -24.74874,-25.25381 0,-13.9473 11.08039,-25.25382 24.74874,-25.25382 13.66835,0 24.74873,11.30652 24.74873,25.25382 z" />
    <path
       transform="translate(252.03306,281.83255)"
       sodipodi:type="arc"
       style="fill:none;stroke:#000000;stroke-width:3"
       id="path2985-35"
       sodipodi:cx="162.12949"
       sodipodi:cy="431.11838"
       sodipodi:rx="24.748737"
       sodipodi:ry="25.253813"
       d="m 186.87822,431.11838 c 0,13.94729 -11.08038,25.25381 -24.74873,25.25381 -13.66835,0 -24.74874,-11.30652 -24.74874,-25.25381 0,-13.9473 11.08039,-25.25382 24.74874,-25.25382 13.66835,0 24.74873,11.30652 24.74873,25.25382 z" />
    <path
       style="fill:none;stroke:#000000;stroke-width:3;stroke-linecap:butt;stroke-linejoin:miter;stroke-opacity:1"
       d="m 186.87822,429.09806 164.65487,4.04061"
       id="path3033"
       inkscape:connector-curvature="0" />
    <path
       style="fill:none;stroke:#000000;stroke-width:3.04741669;stroke-linecap:butt;stroke-linejoin:miter;stroke-opacity:1"
       d="m 391.9629,452.35528 58.54143,65.6125"
       id="path3035"
       inkscape:connector-curvature="0" />
    <path
       style="fill:none;stroke:#000000;stroke-width:3;stroke-linecap:butt;stroke-linejoin:miter;stroke-opacity:1"
       d="M 484.87322,527.08286 590.93924,477.58538"
       id="path3037"
       inkscape:connector-curvature="0" />
    <path
       style="fill:none;stroke:#000000;stroke-width:3;stroke-linecap:butt;stroke-linejoin:miter;stroke-opacity:1"
       d="M 420.22346,688.70727 457.5991,562.4382"
       id="path3039"
       inkscape:connector-curvature="0" />
    <path
       style="fill:none;stroke:#000000;stroke-width:3;stroke-linecap:butt;stroke-linejoin:miter;stroke-opacity:1"
       d="M 441.43666,545.2656 297.995,575.57018"
       id="path3041"
       inkscape:connector-curvature="0" />
    <path
       style="fill:none;stroke:#000000;stroke-width:3;stroke-linecap:butt;stroke-linejoin:miter;stroke-opacity:1"
       d="M 257.5889,560.41789 173.74624,454.35188"
       id="path3043"
       inkscape:connector-curvature="0" />
    <path
       style="fill:none;stroke:#000000;stroke-width:3;stroke-linecap:butt;stroke-linejoin:miter;stroke-opacity:1"
       d="m 287.9144,600.84492 107.03432,99.96325"
       id="path3045"
       inkscape:connector-curvature="0" />
  </g>
</svg>
